<?xml version="1.0" standalone="no"?>
<!DOCTYPE svg PUBLIC "-//W3C//DTD SVG 20010904//EN"
 "http://www.w3.org/TR/2001/REC-SVG-20010904/DTD/svg10.dtd">
<svg version="1.0" xmlns="http://www.w3.org/2000/svg"
 width="640.000000pt" height="640.000000pt" viewBox="0 0 640.000000 640.000000"
 preserveAspectRatio="xMidYMid meet">
<metadata>
Created by potrace 1.14, written by Peter Selinger 2001-2017
</metadata>
<g transform="translate(0.000000,640.000000) scale(0.100000,-0.100000)"
fill="#000000" stroke="none">
<path d="M5774 6381 c-28 -10 -71 -29 -95 -43 -24 -14 -234 -216 -466 -448
l-421 -423 -29 19 c-52 35 -68 44 -167 95 -203 104 -449 180 -671 206 -123 15
-503 7 -557 -12 -7 -2 -29 -7 -48 -10 -19 -3 -39 -7 -45 -9 -5 -1 -37 -9 -70
-16 -74 -17 -61 -13 -120 -32 -112 -35 -295 -116 -390 -171 -74 -44 -130 -81
-133 -89 -2 -5 -8 -8 -13 -8 -9 0 -97 -67 -169 -129 -48 -41 -1312 -1306
-1368 -1369 -77 -86 -71 -79 -124 -149 -27 -34 -48 -66 -48 -71 0 -6 -4 -12
-8 -14 -14 -6 -88 -132 -139 -238 -70 -145 -144 -361 -158 -463 -2 -15 -6 -31
-8 -35 -5 -7 -13 -68 -27 -202 -8 -81 -6 -302 5 -390 7 -63 10 -84 25 -160 6
-30 13 -66 16 -80 8 -44 56 -192 86 -270 39 -99 82 -186 142 -289 l49 -83
-412 -412 -411 -411 0 -276 0 -276 38 -30 c145 -117 368 -118 502 -4 14 12
210 206 436 432 l411 411 114 -66 c234 -135 489 -218 776 -253 114 -14 504 -6
532 12 3 1 24 6 45 9 85 14 212 50 356 101 76 27 332 155 350 176 3 3 23 16
45 29 22 13 46 30 53 37 8 7 32 26 55 42 70 48 139 115 769 746 757 758 762
763 888 955 57 87 156 279 185 360 20 57 61 186 71 225 11 47 12 49 17 75 3
14 8 36 11 50 20 90 30 212 30 370 0 208 -20 359 -70 535 -14 50 -27 95 -28
100 -5 17 -18 49 -37 92 -10 24 -19 47 -19 52 0 13 -117 243 -128 250 -4 3
-15 22 -25 41 l-16 35 419 420 c231 231 431 436 443 455 55 83 81 220 58 305
-6 22 -11 45 -11 50 -5 47 -114 174 -181 212 -88 50 -221 64 -315 34z m-1904
-1396 c42 -7 103 -21 135 -30 56 -16 184 -64 194 -72 3 -2 -142 -151 -321
-331 -379 -380 -385 -389 -393 -550 -4 -81 16 -159 59 -226 35 -55 104 -121
146 -139 89 -37 128 -46 200 -43 162 8 169 12 548 389 177 177 325 324 327
326 3 2 13 -16 23 -40 73 -170 102 -316 97 -489 -5 -168 -24 -276 -75 -407
-35 -92 -112 -237 -143 -267 -7 -7 -21 -25 -32 -41 -11 -15 -31 -40 -45 -55
-14 -15 -37 -40 -52 -56 -15 -16 -33 -34 -40 -40 -7 -7 -277 -277 -600 -600
-624 -626 -644 -645 -747 -712 -275 -181 -600 -240 -926 -168 -30 6 -164 52
-209 71 l-39 17 101 101 c147 148 510 519 525 537 91 109 105 320 28 440 -60
93 -154 167 -237 186 -55 11 -168 11 -210 -2 -95 -28 -129 -57 -447 -373 -175
-174 -320 -318 -322 -320 -3 -2 -9 9 -15 25 -6 16 -15 39 -20 52 -20 45 -28
68 -35 92 -3 14 -11 41 -16 60 -27 99 -36 181 -34 308 6 286 105 542 292 758
88 101 1312 1326 1353 1354 19 13 37 27 40 30 15 16 126 82 183 109 126 59
231 91 352 107 28 3 51 7 53 9 9 8 240 1 302 -10z"/>
</g>
</svg>
