<svg width="384" height="80" fill="none" xmlns="http://www.w3.org/2000/svg"><path d="M50 23.333h10a16.666 16.666 0 1 1 0 33.334H50m-20 0H20a16.667 16.667 0 1 1 0-33.334h10M26.667 40h26.666" stroke="#141414" stroke-width="2" stroke-linecap="round" stroke-linejoin="round"/><path d="M122 23.333h10A16.664 16.664 0 0 1 148.667 40a16.66 16.66 0 0 1-4.882 11.785A16.67 16.67 0 0 1 132 56.667h-10m-20 0H92a16.667 16.667 0 1 1 0-33.334h10M98.667 40h26.666" stroke="#141414" stroke-width="2" stroke-linecap="round" stroke-linejoin="round"/><path d="M194 23.333h10A16.664 16.664 0 0 1 220.667 40a16.66 16.66 0 0 1-4.882 11.785A16.67 16.67 0 0 1 204 56.667h-10m-20 0h-10A16.665 16.665 0 0 1 147.333 40 16.665 16.665 0 0 1 164 23.333h10M170.667 40h26.666" stroke="#141414" stroke-width="2" stroke-linecap="round" stroke-linejoin="round"/><path d="M244 39a1 1 0 0 0 0 2v-2Zm40 1-10-5.773v11.547L284 40Zm-40 1h31v-2h-31v2Z" fill="#005AE2"/><path d="M354 23.333h10A16.664 16.664 0 0 1 380.667 40a16.66 16.66 0 0 1-4.882 11.785A16.67 16.67 0 0 1 364 56.667h-10m-20 0h-10A16.665 16.665 0 0 1 307.333 40 16.665 16.665 0 0 1 324 23.333h10M330.667 40h26.666" stroke="#141414" stroke-width="2" stroke-linecap="round" stroke-linejoin="round"/></svg>
