<svg width="1440" height="220" viewBox="0 0 1440 220" fill="none" xmlns="http://www.w3.org/2000/svg">
<rect width="1446" height="220" transform="translate(-3)" fill="#F9FBFD"/>
<path d="M163.16 93.36C160.333 96.16 156.893 97.56 152.84 97.56C148.787 97.56 145.347 96.16 142.52 93.36C139.72 90.5333 138.32 87.08 138.32 83C138.32 78.92 139.72 75.48 142.52 72.68C145.347 69.8533 148.787 68.44 152.84 68.44C156.893 68.44 160.333 69.8533 163.16 72.68C165.987 75.48 167.4 78.92 167.4 83C167.4 87.08 165.987 90.5333 163.16 93.36ZM146.4 89.6C148.133 91.3067 150.28 92.16 152.84 92.16C155.4 92.16 157.547 91.3067 159.28 89.6C161.013 87.8667 161.88 85.6667 161.88 83C161.88 80.3333 161.013 78.1333 159.28 76.4C157.547 74.6667 155.4 73.8 152.84 73.8C150.28 73.8 148.133 74.6667 146.4 76.4C144.667 78.1333 143.8 80.3333 143.8 83C143.8 85.6667 144.667 87.8667 146.4 89.6ZM182.16 76.44C184.346 76.44 186.146 77.1733 187.56 78.64C189 80.1067 189.72 82.1333 189.72 84.72V97H184.56V85.36C184.56 84.0267 184.2 83.0133 183.48 82.32C182.76 81.6 181.8 81.24 180.6 81.24C179.266 81.24 178.2 81.6533 177.4 82.48C176.6 83.3067 176.2 84.5467 176.2 86.2V97H171.04V77H176.2V79.24C177.453 77.3733 179.44 76.44 182.16 76.44ZM198.486 89.12C199.179 91.6267 201.059 92.88 204.126 92.88C206.099 92.88 207.592 92.2133 208.606 90.88L212.766 93.28C210.792 96.1333 207.886 97.56 204.046 97.56C200.739 97.56 198.086 96.56 196.086 94.56C194.086 92.56 193.086 90.04 193.086 87C193.086 83.9867 194.072 81.48 196.046 79.48C198.019 77.4533 200.552 76.44 203.646 76.44C206.579 76.44 208.992 77.4533 210.886 79.48C212.806 81.5067 213.766 84.0133 213.766 87C213.766 87.6667 213.699 88.3733 213.566 89.12H198.486ZM198.406 85.12H208.606C208.312 83.76 207.699 82.7467 206.766 82.08C205.859 81.4133 204.819 81.08 203.646 81.08C202.259 81.08 201.112 81.44 200.206 82.16C199.299 82.8533 198.699 83.84 198.406 85.12ZM237.168 97.56C234.394 97.56 232.061 96.9467 230.168 95.72C228.274 94.4667 226.941 92.7733 226.168 90.64L230.888 87.88C231.981 90.7333 234.128 92.16 237.328 92.16C238.874 92.16 240.008 91.88 240.728 91.32C241.448 90.76 241.808 90.0533 241.808 89.2C241.808 88.2133 241.368 87.4533 240.488 86.92C239.608 86.36 238.034 85.76 235.768 85.12C234.514 84.7467 233.448 84.3733 232.568 84C231.714 83.6267 230.848 83.1333 229.968 82.52C229.114 81.88 228.461 81.08 228.008 80.12C227.554 79.16 227.328 78.04 227.328 76.76C227.328 74.2267 228.221 72.2133 230.008 70.72C231.821 69.2 233.994 68.44 236.528 68.44C238.794 68.44 240.781 69 242.488 70.12C244.221 71.2133 245.568 72.7467 246.528 74.72L241.888 77.4C240.768 75 238.981 73.8 236.528 73.8C235.381 73.8 234.474 74.0667 233.808 74.6C233.168 75.1067 232.848 75.7733 232.848 76.6C232.848 77.48 233.208 78.2 233.928 78.76C234.674 79.2933 236.088 79.88 238.168 80.52C239.021 80.7867 239.661 81 240.088 81.16C240.541 81.2933 241.141 81.52 241.888 81.84C242.661 82.1333 243.248 82.4133 243.648 82.68C244.074 82.9467 244.554 83.3067 245.088 83.76C245.621 84.2133 246.021 84.68 246.288 85.16C246.581 85.64 246.821 86.2267 247.008 86.92C247.221 87.5867 247.328 88.32 247.328 89.12C247.328 91.7067 246.381 93.76 244.488 95.28C242.621 96.8 240.181 97.56 237.168 97.56ZM261.542 81.96H257.022V90.28C257.022 90.9733 257.196 91.48 257.542 91.8C257.889 92.12 258.396 92.3067 259.062 92.36C259.729 92.3867 260.556 92.3733 261.542 92.32V97C257.996 97.4 255.489 97.0667 254.022 96C252.582 94.9333 251.862 93.0267 251.862 90.28V81.96H248.382V77H251.862V72.96L257.022 71.4V77H261.542V81.96ZM281.595 94.52C279.542 96.5467 277.035 97.56 274.075 97.56C271.115 97.56 268.609 96.5467 266.555 94.52C264.529 92.4667 263.515 89.96 263.515 87C263.515 84.04 264.529 81.5467 266.555 79.52C268.609 77.4667 271.115 76.44 274.075 76.44C277.035 76.44 279.542 77.4667 281.595 79.52C283.649 81.5467 284.675 84.04 284.675 87C284.675 89.96 283.649 92.4667 281.595 94.52ZM270.195 90.96C271.235 92 272.529 92.52 274.075 92.52C275.622 92.52 276.915 92 277.955 90.96C278.995 89.92 279.515 88.6 279.515 87C279.515 85.4 278.995 84.08 277.955 83.04C276.915 82 275.622 81.48 274.075 81.48C272.529 81.48 271.235 82 270.195 83.04C269.182 84.08 268.675 85.4 268.675 87C268.675 88.6 269.182 89.92 270.195 90.96ZM299.945 76.44C302.639 76.44 304.932 77.4667 306.825 79.52C308.745 81.5467 309.705 84.04 309.705 87C309.705 89.96 308.745 92.4667 306.825 94.52C304.932 96.5467 302.639 97.56 299.945 97.56C297.145 97.56 294.985 96.5867 293.465 94.64V105H288.305V77H293.465V79.36C294.985 77.4133 297.145 76.44 299.945 76.44ZM295.025 91.08C296.065 92.12 297.385 92.64 298.985 92.64C300.585 92.64 301.905 92.12 302.945 91.08C304.012 90.0133 304.545 88.6533 304.545 87C304.545 85.3467 304.012 84 302.945 82.96C301.905 81.8933 300.585 81.36 298.985 81.36C297.385 81.36 296.065 81.8933 295.025 82.96C293.985 84 293.465 85.3467 293.465 87C293.465 88.6533 293.985 90.0133 295.025 91.08ZM317.143 96.52C316.476 97.1867 315.676 97.52 314.743 97.52C313.809 97.52 313.009 97.1867 312.343 96.52C311.676 95.8533 311.343 95.0533 311.343 94.12C311.343 93.1867 311.676 92.3867 312.343 91.72C313.009 91.0533 313.809 90.72 314.743 90.72C315.676 90.72 316.476 91.0533 317.143 91.72C317.809 92.3867 318.143 93.1867 318.143 94.12C318.143 95.0533 317.809 95.8533 317.143 96.52ZM156.32 122.28H145.12V128.92H156V134.2H145.12V145H139.6V117H156.32V122.28ZM177.142 142.52C175.089 144.547 172.582 145.56 169.622 145.56C166.662 145.56 164.156 144.547 162.102 142.52C160.076 140.467 159.062 137.96 159.062 135C159.062 132.04 160.076 129.547 162.102 127.52C164.156 125.467 166.662 124.44 169.622 124.44C172.582 124.44 175.089 125.467 177.142 127.52C179.196 129.547 180.222 132.04 180.222 135C180.222 137.96 179.196 140.467 177.142 142.52ZM165.742 138.96C166.782 140 168.076 140.52 169.622 140.52C171.169 140.52 172.462 140 173.502 138.96C174.542 137.92 175.062 136.6 175.062 135C175.062 133.4 174.542 132.08 173.502 131.04C172.462 130 171.169 129.48 169.622 129.48C168.076 129.48 166.782 130 165.742 131.04C164.729 132.08 164.222 133.4 164.222 135C164.222 136.6 164.729 137.92 165.742 138.96ZM197.052 125H202.212V145H197.052V142.76C195.799 144.627 193.812 145.56 191.092 145.56C188.906 145.56 187.092 144.827 185.652 143.36C184.239 141.893 183.532 139.867 183.532 137.28V125H188.692V136.64C188.692 137.973 189.052 139 189.772 139.72C190.492 140.413 191.452 140.76 192.652 140.76C193.986 140.76 195.052 140.347 195.852 139.52C196.652 138.693 197.052 137.453 197.052 135.8V125ZM212.098 128.44C212.578 127.16 213.365 126.2 214.458 125.56C215.578 124.92 216.818 124.6 218.178 124.6V130.36C216.605 130.173 215.191 130.493 213.938 131.32C212.711 132.147 212.098 133.52 212.098 135.44V145H206.938V125H212.098V128.44ZM448.51 144.52C447.843 145.187 447.043 145.52 446.11 145.52C445.177 145.52 444.377 145.187 443.71 144.52C443.043 143.853 442.71 143.053 442.71 142.12C442.71 141.187 443.043 140.387 443.71 139.72C444.377 139.053 445.177 138.72 446.11 138.72C447.043 138.72 447.843 139.053 448.51 139.72C449.177 140.387 449.51 141.187 449.51 142.12C449.51 143.053 449.177 143.853 448.51 144.52Z" fill="#141414"/>
<path d="M241.876 117C244.569 117 246.836 117.907 248.676 119.72C250.516 121.533 251.436 123.76 251.436 126.4C251.436 129.04 250.516 131.267 248.676 133.08C246.836 134.893 244.569 135.8 241.876 135.8H236.956V145H231.436V117H241.876ZM241.876 130.64C243.049 130.64 244.023 130.24 244.796 129.44C245.569 128.613 245.956 127.6 245.956 126.4C245.956 125.173 245.569 124.16 244.796 123.36C244.023 122.56 243.049 122.16 241.876 122.16H236.956V130.64H241.876ZM270.502 142.52C268.448 144.547 265.942 145.56 262.982 145.56C260.022 145.56 257.515 144.547 255.462 142.52C253.435 140.467 252.422 137.96 252.422 135C252.422 132.04 253.435 129.547 255.462 127.52C257.515 125.467 260.022 124.44 262.982 124.44C265.942 124.44 268.448 125.467 270.502 127.52C272.555 129.547 273.582 132.04 273.582 135C273.582 137.96 272.555 140.467 270.502 142.52ZM259.102 138.96C260.142 140 261.435 140.52 262.982 140.52C264.528 140.52 265.822 140 266.862 138.96C267.902 137.92 268.422 136.6 268.422 135C268.422 133.4 267.902 132.08 266.862 131.04C265.822 130 264.528 129.48 262.982 129.48C261.435 129.48 260.142 130 259.102 131.04C258.088 132.08 257.582 133.4 257.582 135C257.582 136.6 258.088 137.92 259.102 138.96ZM281.542 130.68C281.542 131.213 281.889 131.653 282.582 132C283.302 132.32 284.169 132.613 285.182 132.88C286.195 133.12 287.209 133.44 288.222 133.84C289.235 134.213 290.089 134.853 290.782 135.76C291.502 136.667 291.862 137.8 291.862 139.16C291.862 141.213 291.089 142.8 289.542 143.92C288.022 145.013 286.115 145.56 283.822 145.56C279.715 145.56 276.915 143.973 275.422 140.8L279.902 138.28C280.489 140.013 281.795 140.88 283.822 140.88C285.662 140.88 286.582 140.307 286.582 139.16C286.582 138.627 286.222 138.2 285.502 137.88C284.809 137.533 283.955 137.227 282.942 136.96C281.929 136.693 280.915 136.36 279.902 135.96C278.889 135.56 278.022 134.933 277.302 134.08C276.609 133.2 276.262 132.107 276.262 130.8C276.262 128.827 276.982 127.28 278.422 126.16C279.889 125.013 281.702 124.44 283.862 124.44C285.489 124.44 286.969 124.813 288.302 125.56C289.635 126.28 290.689 127.32 291.462 128.68L287.062 131.08C286.422 129.72 285.355 129.04 283.862 129.04C283.195 129.04 282.635 129.187 282.182 129.48C281.755 129.773 281.542 130.173 281.542 130.68ZM298.886 130.68C298.886 131.213 299.232 131.653 299.926 132C300.646 132.32 301.512 132.613 302.526 132.88C303.539 133.12 304.552 133.44 305.566 133.84C306.579 134.213 307.432 134.853 308.126 135.76C308.846 136.667 309.206 137.8 309.206 139.16C309.206 141.213 308.432 142.8 306.886 143.92C305.366 145.013 303.459 145.56 301.166 145.56C297.059 145.56 294.259 143.973 292.766 140.8L297.246 138.28C297.832 140.013 299.139 140.88 301.166 140.88C303.006 140.88 303.926 140.307 303.926 139.16C303.926 138.627 303.566 138.2 302.846 137.88C302.152 137.533 301.299 137.227 300.286 136.96C299.272 136.693 298.259 136.36 297.246 135.96C296.232 135.56 295.366 134.933 294.646 134.08C293.952 133.2 293.606 132.107 293.606 130.8C293.606 128.827 294.326 127.28 295.766 126.16C297.232 125.013 299.046 124.44 301.206 124.44C302.832 124.44 304.312 124.813 305.646 125.56C306.979 126.28 308.032 127.32 308.806 128.68L304.406 131.08C303.766 129.72 302.699 129.04 301.206 129.04C300.539 129.04 299.979 129.187 299.526 129.48C299.099 129.773 298.886 130.173 298.886 130.68ZM315.084 122.6C314.231 122.6 313.484 122.293 312.844 121.68C312.231 121.04 311.924 120.293 311.924 119.44C311.924 118.587 312.231 117.84 312.844 117.2C313.484 116.56 314.231 116.24 315.084 116.24C315.964 116.24 316.711 116.56 317.324 117.2C317.964 117.84 318.284 118.587 318.284 119.44C318.284 120.293 317.964 121.04 317.324 121.68C316.711 122.293 315.964 122.6 315.084 122.6ZM312.524 145V125H317.684V145H312.524ZM334.047 124.44C336.74 124.44 339.034 125.467 340.927 127.52C342.847 129.547 343.807 132.04 343.807 135C343.807 137.96 342.847 140.467 340.927 142.52C339.034 144.547 336.74 145.56 334.047 145.56C331.247 145.56 329.087 144.587 327.567 142.64V145H322.407V117H327.567V127.36C329.087 125.413 331.247 124.44 334.047 124.44ZM329.127 139.08C330.167 140.12 331.487 140.64 333.087 140.64C334.687 140.64 336.007 140.12 337.047 139.08C338.114 138.013 338.647 136.653 338.647 135C338.647 133.347 338.114 132 337.047 130.96C336.007 129.893 334.687 129.36 333.087 129.36C331.487 129.36 330.167 129.893 329.127 130.96C328.087 132 327.567 133.347 327.567 135C327.567 136.653 328.087 138.013 329.127 139.08ZM350.006 122.6C349.153 122.6 348.406 122.293 347.766 121.68C347.153 121.04 346.846 120.293 346.846 119.44C346.846 118.587 347.153 117.84 347.766 117.2C348.406 116.56 349.153 116.24 350.006 116.24C350.886 116.24 351.633 116.56 352.246 117.2C352.886 117.84 353.206 118.587 353.206 119.44C353.206 120.293 352.886 121.04 352.246 121.68C351.633 122.293 350.886 122.6 350.006 122.6ZM347.446 145V125H352.606V145H347.446ZM357.329 145V115.8H362.489V145H357.329ZM369.772 122.6C368.918 122.6 368.172 122.293 367.532 121.68C366.918 121.04 366.612 120.293 366.612 119.44C366.612 118.587 366.918 117.84 367.532 117.2C368.172 116.56 368.918 116.24 369.772 116.24C370.652 116.24 371.398 116.56 372.012 117.2C372.652 117.84 372.972 118.587 372.972 119.44C372.972 120.293 372.652 121.04 372.012 121.68C371.398 122.293 370.652 122.6 369.772 122.6ZM367.212 145V125H372.372V145H367.212ZM388.534 129.96H384.014V138.28C384.014 138.973 384.188 139.48 384.534 139.8C384.881 140.12 385.388 140.307 386.054 140.36C386.721 140.387 387.548 140.373 388.534 140.32V145C384.988 145.4 382.481 145.067 381.014 144C379.574 142.933 378.854 141.027 378.854 138.28V129.96H375.374V125H378.854V120.96L384.014 119.4V125H388.534V129.96ZM394.733 122.6C393.879 122.6 393.133 122.293 392.493 121.68C391.879 121.04 391.573 120.293 391.573 119.44C391.573 118.587 391.879 117.84 392.493 117.2C393.133 116.56 393.879 116.24 394.733 116.24C395.613 116.24 396.359 116.56 396.973 117.2C397.613 117.84 397.933 118.587 397.933 119.44C397.933 120.293 397.613 121.04 396.973 121.68C396.359 122.293 395.613 122.6 394.733 122.6ZM392.173 145V125H397.333V145H392.173ZM406.415 137.12C407.109 139.627 408.989 140.88 412.055 140.88C414.029 140.88 415.522 140.213 416.535 138.88L420.695 141.28C418.722 144.133 415.815 145.56 411.975 145.56C408.669 145.56 406.015 144.56 404.015 142.56C402.015 140.56 401.015 138.04 401.015 135C401.015 131.987 402.002 129.48 403.975 127.48C405.949 125.453 408.482 124.44 411.575 124.44C414.509 124.44 416.922 125.453 418.815 127.48C420.735 129.507 421.695 132.013 421.695 135C421.695 135.667 421.629 136.373 421.495 137.12H406.415ZM406.335 133.12H416.535C416.242 131.76 415.629 130.747 414.695 130.08C413.789 129.413 412.749 129.08 411.575 129.08C410.189 129.08 409.042 129.44 408.135 130.16C407.229 130.853 406.629 131.84 406.335 133.12ZM429.276 130.68C429.276 131.213 429.623 131.653 430.316 132C431.036 132.32 431.903 132.613 432.916 132.88C433.93 133.12 434.943 133.44 435.956 133.84C436.97 134.213 437.823 134.853 438.516 135.76C439.236 136.667 439.596 137.8 439.596 139.16C439.596 141.213 438.823 142.8 437.276 143.92C435.756 145.013 433.85 145.56 431.556 145.56C427.45 145.56 424.65 143.973 423.156 140.8L427.636 138.28C428.223 140.013 429.53 140.88 431.556 140.88C433.396 140.88 434.316 140.307 434.316 139.16C434.316 138.627 433.956 138.2 433.236 137.88C432.543 137.533 431.69 137.227 430.676 136.96C429.663 136.693 428.65 136.36 427.636 135.96C426.623 135.56 425.756 134.933 425.036 134.08C424.343 133.2 423.996 132.107 423.996 130.8C423.996 128.827 424.716 127.28 426.156 126.16C427.623 125.013 429.436 124.44 431.596 124.44C433.223 124.44 434.703 124.813 436.036 125.56C437.37 126.28 438.423 127.32 439.196 128.68L434.796 131.08C434.156 129.72 433.09 129.04 431.596 129.04C430.93 129.04 430.37 129.187 429.916 129.48C429.49 129.773 429.276 130.173 429.276 130.68Z" fill="#005AE2"/>
<path d="M608.688 75.752C610.309 76.136 611.621 76.8933 612.624 78.024C613.648 79.1333 614.16 80.5307 614.16 82.216C614.16 84.456 613.403 86.216 611.888 87.496C610.373 88.776 608.517 89.416 606.32 89.416C604.613 89.416 603.077 89.0213 601.712 88.232C600.368 87.4427 599.397 86.2907 598.8 84.776L601.936 82.952C602.597 84.872 604.059 85.832 606.32 85.832C607.6 85.832 608.613 85.512 609.36 84.872C610.107 84.2107 610.48 83.3253 610.48 82.216C610.48 81.1067 610.107 80.232 609.36 79.592C608.613 78.952 607.6 78.632 606.32 78.632H605.488L604.016 76.424L608.848 70.056H599.472V66.6H613.232V69.736L608.688 75.752ZM638.961 66.6V89H635.281V73.032L628.465 84.296H628.017L621.201 73V89H617.521V66.6H621.489L628.241 77.8L635.025 66.6H638.961Z" fill="#141414"/>
<path d="M606.576 120L605.664 117.488H600.624L599.712 120H598.128L602.304 108.8H603.984L608.16 120H606.576ZM601.136 116.096H605.152L603.136 110.576L601.136 116.096ZM612.91 120.208C611.704 120.208 610.702 119.808 609.902 119.008C609.102 118.197 608.702 117.195 608.702 116C608.702 114.805 609.102 113.808 609.902 113.008C610.702 112.197 611.704 111.792 612.91 111.792C613.699 111.792 614.408 111.984 615.038 112.368C615.667 112.741 616.136 113.248 616.446 113.888L615.278 114.56C615.075 114.133 614.76 113.792 614.334 113.536C613.918 113.28 613.443 113.152 612.91 113.152C612.11 113.152 611.438 113.424 610.894 113.968C610.36 114.512 610.094 115.189 610.094 116C610.094 116.8 610.36 117.472 610.894 118.016C611.438 118.56 612.11 118.832 612.91 118.832C613.443 118.832 613.923 118.709 614.35 118.464C614.776 118.208 615.102 117.867 615.326 117.44L616.51 118.128C616.168 118.757 615.678 119.264 615.038 119.648C614.398 120.021 613.688 120.208 612.91 120.208ZM622.236 113.344H620.108V117.68C620.108 118.075 620.183 118.357 620.332 118.528C620.492 118.688 620.732 118.773 621.052 118.784C621.372 118.784 621.767 118.773 622.236 118.752V120C621.02 120.16 620.129 120.064 619.564 119.712C618.999 119.349 618.716 118.672 618.716 117.68V113.344H617.132V112H618.716V110.176L620.108 109.76V112H622.236V113.344ZM624.588 110.544C624.321 110.544 624.097 110.453 623.916 110.272C623.735 110.091 623.644 109.872 623.644 109.616C623.644 109.36 623.735 109.141 623.916 108.96C624.097 108.768 624.321 108.672 624.588 108.672C624.844 108.672 625.063 108.768 625.244 108.96C625.425 109.141 625.516 109.36 625.516 109.616C625.516 109.872 625.425 110.091 625.244 110.272C625.063 110.453 624.844 110.544 624.588 110.544ZM623.884 120V112H625.276V120H623.884ZM633 112H634.504L631.304 120H629.672L626.472 112H627.976L630.488 118.512L633 112ZM636.345 116.64C636.483 117.355 636.809 117.909 637.321 118.304C637.843 118.699 638.483 118.896 639.241 118.896C640.297 118.896 641.065 118.507 641.545 117.728L642.729 118.4C641.95 119.605 640.777 120.208 639.209 120.208C637.939 120.208 636.905 119.813 636.105 119.024C635.315 118.224 634.921 117.216 634.921 116C634.921 114.795 635.31 113.792 636.089 112.992C636.867 112.192 637.875 111.792 639.113 111.792C640.286 111.792 641.241 112.208 641.977 113.04C642.723 113.861 643.097 114.853 643.097 116.016C643.097 116.219 643.081 116.427 643.049 116.64H636.345ZM639.113 113.104C638.366 113.104 637.747 113.317 637.257 113.744C636.766 114.16 636.462 114.72 636.345 115.424H641.689C641.571 114.667 641.273 114.091 640.793 113.696C640.313 113.301 639.753 113.104 639.113 113.104ZM654.217 112H655.609V120H654.217V118.848C653.651 119.755 652.787 120.208 651.625 120.208C650.686 120.208 649.934 119.915 649.369 119.328C648.803 118.731 648.521 117.925 648.521 116.912V112H649.913V116.832C649.913 117.483 650.089 117.989 650.441 118.352C650.793 118.704 651.278 118.88 651.897 118.88C652.59 118.88 653.15 118.667 653.577 118.24C654.003 117.803 654.217 117.136 654.217 116.24V112ZM658.912 114.16C658.912 114.469 659.067 114.72 659.376 114.912C659.686 115.093 660.059 115.243 660.496 115.36C660.934 115.467 661.371 115.595 661.808 115.744C662.246 115.883 662.619 116.128 662.928 116.48C663.238 116.821 663.392 117.264 663.392 117.808C663.392 118.533 663.11 119.115 662.544 119.552C661.99 119.989 661.275 120.208 660.4 120.208C659.622 120.208 658.955 120.037 658.4 119.696C657.846 119.355 657.451 118.901 657.216 118.336L658.416 117.648C658.544 118.032 658.784 118.336 659.136 118.56C659.488 118.784 659.91 118.896 660.4 118.896C660.859 118.896 661.238 118.811 661.536 118.64C661.835 118.459 661.984 118.181 661.984 117.808C661.984 117.499 661.83 117.253 661.52 117.072C661.211 116.88 660.838 116.731 660.4 116.624C659.963 116.507 659.526 116.373 659.088 116.224C658.651 116.075 658.278 115.829 657.968 115.488C657.659 115.147 657.504 114.709 657.504 114.176C657.504 113.483 657.771 112.912 658.304 112.464C658.848 112.016 659.526 111.792 660.336 111.792C660.987 111.792 661.563 111.941 662.064 112.24C662.576 112.528 662.96 112.933 663.216 113.456L662.048 114.112C661.76 113.429 661.19 113.088 660.336 113.088C659.942 113.088 659.606 113.184 659.328 113.376C659.051 113.557 658.912 113.819 658.912 114.16ZM665.798 116.64C665.936 117.355 666.262 117.909 666.774 118.304C667.296 118.699 667.936 118.896 668.694 118.896C669.75 118.896 670.518 118.507 670.998 117.728L672.182 118.4C671.403 119.605 670.23 120.208 668.662 120.208C667.392 120.208 666.358 119.813 665.558 119.024C664.768 118.224 664.374 117.216 664.374 116C664.374 114.795 664.763 113.792 665.542 112.992C666.32 112.192 667.328 111.792 668.566 111.792C669.739 111.792 670.694 112.208 671.43 113.04C672.176 113.861 672.55 114.853 672.55 116.016C672.55 116.219 672.534 116.427 672.502 116.64H665.798ZM668.566 113.104C667.819 113.104 667.2 113.317 666.71 113.744C666.219 114.16 665.915 114.72 665.798 115.424H671.142C671.024 114.667 670.726 114.091 670.246 113.696C669.766 113.301 669.206 113.104 668.566 113.104ZM675.542 113.344C676 112.352 676.832 111.856 678.038 111.856V113.312C677.355 113.28 676.768 113.461 676.278 113.856C675.787 114.251 675.542 114.885 675.542 115.76V120H674.15V112H675.542V113.344ZM680.303 114.16C680.303 114.469 680.458 114.72 680.767 114.912C681.076 115.093 681.45 115.243 681.887 115.36C682.324 115.467 682.762 115.595 683.199 115.744C683.636 115.883 684.01 116.128 684.319 116.48C684.628 116.821 684.783 117.264 684.783 117.808C684.783 118.533 684.5 119.115 683.935 119.552C683.38 119.989 682.666 120.208 681.791 120.208C681.012 120.208 680.346 120.037 679.791 119.696C679.236 119.355 678.842 118.901 678.607 118.336L679.807 117.648C679.935 118.032 680.175 118.336 680.527 118.56C680.879 118.784 681.3 118.896 681.791 118.896C682.25 118.896 682.628 118.811 682.927 118.64C683.226 118.459 683.375 118.181 683.375 117.808C683.375 117.499 683.22 117.253 682.911 117.072C682.602 116.88 682.228 116.731 681.791 116.624C681.354 116.507 680.916 116.373 680.479 116.224C680.042 116.075 679.668 115.829 679.359 115.488C679.05 115.147 678.895 114.709 678.895 114.176C678.895 113.483 679.162 112.912 679.695 112.464C680.239 112.016 680.916 111.792 681.727 111.792C682.378 111.792 682.954 111.941 683.455 112.24C683.967 112.528 684.351 112.933 684.607 113.456L683.439 114.112C683.151 113.429 682.58 113.088 681.727 113.088C681.332 113.088 680.996 113.184 680.719 113.376C680.442 113.557 680.303 113.819 680.303 114.16Z" fill="#141414"/>
<path d="M766.736 74.12C769.061 74.12 770.96 74.8347 772.432 76.264C773.904 77.672 774.64 79.5067 774.64 81.768C774.64 84.0293 773.904 85.8747 772.432 87.304C770.96 88.712 769.061 89.416 766.736 89.416C764.389 89.416 762.48 88.712 761.008 87.304C759.536 85.8747 758.8 84.0293 758.8 81.768C758.8 80.0613 759.248 78.5573 760.144 77.256L767.248 66.6H771.44L766.32 74.12H766.736ZM766.736 85.928C767.973 85.928 768.987 85.5547 769.776 84.808C770.565 84.04 770.96 83.0267 770.96 81.768C770.96 80.5093 770.565 79.5067 769.776 78.76C768.987 77.992 767.973 77.608 766.736 77.608C765.477 77.608 764.453 77.992 763.664 78.76C762.875 79.5067 762.48 80.5093 762.48 81.768C762.48 83.0267 762.875 84.04 763.664 84.808C764.453 85.5547 765.477 85.928 766.736 85.928ZM791.982 86.248C790.446 88.36 788.291 89.416 785.518 89.416C782.744 89.416 780.579 88.36 779.022 86.248C777.486 84.136 776.718 81.32 776.718 77.8C776.718 74.28 777.486 71.464 779.022 69.352C780.579 67.24 782.744 66.184 785.518 66.184C788.291 66.184 790.446 67.24 791.982 69.352C793.539 71.464 794.318 74.28 794.318 77.8C794.318 81.32 793.539 84.136 791.982 86.248ZM785.518 85.832C787.182 85.832 788.451 85.1387 789.326 83.752C790.2 82.3653 790.638 80.3813 790.638 77.8C790.638 75.2187 790.2 73.2347 789.326 71.848C788.451 70.4613 787.182 69.768 785.518 69.768C783.875 69.768 782.606 70.4613 781.71 71.848C780.835 73.2347 780.398 75.2187 780.398 77.8C780.398 80.3813 780.835 82.3653 781.71 83.752C782.606 85.1387 783.875 85.832 785.518 85.832ZM819.274 66.6V89H815.594V73.032L808.778 84.296H808.33L801.514 73V89H797.834V66.6H801.802L808.554 77.8L815.338 66.6H819.274Z" fill="#141414"/>
<path d="M760.688 118.592H765.52V120H759.2V108.8H760.688V118.592ZM767.573 110.544C767.306 110.544 767.082 110.453 766.901 110.272C766.719 110.091 766.629 109.872 766.629 109.616C766.629 109.36 766.719 109.141 766.901 108.96C767.082 108.768 767.306 108.672 767.573 108.672C767.829 108.672 768.047 108.768 768.229 108.96C768.41 109.141 768.501 109.36 768.501 109.616C768.501 109.872 768.41 110.091 768.229 110.272C768.047 110.453 767.829 110.544 767.573 110.544ZM766.868 120V112H768.261V120H766.868ZM774.368 111.792C775.307 111.792 776.059 112.091 776.624 112.688C777.189 113.275 777.472 114.075 777.472 115.088V120H776.08V115.168C776.08 114.517 775.904 114.016 775.552 113.664C775.2 113.301 774.715 113.12 774.096 113.12C773.403 113.12 772.843 113.339 772.416 113.776C771.989 114.203 771.776 114.864 771.776 115.76V120H770.384V112H771.776V113.152C772.341 112.245 773.205 111.792 774.368 111.792ZM786.183 120H784.455L780.807 116.208V120H779.415V108.8H780.807V115.536L784.263 112H786.055L782.231 115.872L786.183 120ZM788.069 114.16C788.069 114.469 788.223 114.72 788.533 114.912C788.842 115.093 789.215 115.243 789.653 115.36C790.09 115.467 790.527 115.595 790.965 115.744C791.402 115.883 791.775 116.128 792.085 116.48C792.394 116.821 792.549 117.264 792.549 117.808C792.549 118.533 792.266 119.115 791.701 119.552C791.146 119.989 790.431 120.208 789.557 120.208C788.778 120.208 788.111 120.037 787.557 119.696C787.002 119.355 786.607 118.901 786.373 118.336L787.573 117.648C787.701 118.032 787.941 118.336 788.293 118.56C788.645 118.784 789.066 118.896 789.557 118.896C790.015 118.896 790.394 118.811 790.693 118.64C790.991 118.459 791.141 118.181 791.141 117.808C791.141 117.499 790.986 117.253 790.677 117.072C790.367 116.88 789.994 116.731 789.557 116.624C789.119 116.507 788.682 116.373 788.245 116.224C787.807 116.075 787.434 115.829 787.125 115.488C786.815 115.147 786.661 114.709 786.661 114.176C786.661 113.483 786.927 112.912 787.461 112.464C788.005 112.016 788.682 111.792 789.493 111.792C790.143 111.792 790.719 111.941 791.221 112.24C791.733 112.528 792.117 112.933 792.373 113.456L791.205 114.112C790.917 113.429 790.346 113.088 789.493 113.088C789.098 113.088 788.762 113.184 788.485 113.376C788.207 113.557 788.069 113.819 788.069 114.16ZM807.365 119.536L806.117 120.256L804.981 119.04C804.149 119.819 803.082 120.208 801.781 120.208C800.661 120.208 799.754 119.92 799.061 119.344C798.367 118.757 798.021 117.968 798.021 116.976C798.021 116.293 798.191 115.669 798.533 115.104C798.885 114.528 799.397 114.075 800.069 113.744C799.589 113.136 799.349 112.459 799.349 111.712C799.349 110.784 799.669 110.032 800.309 109.456C800.959 108.88 801.738 108.592 802.645 108.592C803.391 108.592 804.069 108.795 804.677 109.2C805.285 109.605 805.722 110.165 805.989 110.88L804.741 111.6C804.581 111.109 804.314 110.725 803.941 110.448C803.578 110.171 803.157 110.032 802.677 110.032C802.165 110.032 801.727 110.187 801.365 110.496C801.013 110.805 800.837 111.205 800.837 111.696C800.837 112.048 800.917 112.368 801.077 112.656C801.247 112.933 801.498 113.248 801.829 113.6L804.885 116.864C805.151 116.309 805.343 115.632 805.461 114.832L806.741 115.568C806.591 116.453 806.303 117.248 805.877 117.952L807.365 119.536ZM801.813 118.8C802.698 118.8 803.434 118.539 804.021 118.016L800.997 114.768C800.485 114.981 800.106 115.28 799.861 115.664C799.626 116.048 799.509 116.453 799.509 116.88C799.509 117.477 799.711 117.947 800.117 118.288C800.522 118.629 801.087 118.8 801.813 118.8ZM823.942 114.4C823.942 115.936 823.414 117.264 822.358 118.384L823.59 119.616L822.566 120.544L821.302 119.264C820.332 119.893 819.276 120.208 818.134 120.208C816.534 120.208 815.169 119.643 814.038 118.512C812.908 117.381 812.342 116.011 812.342 114.4C812.342 112.789 812.908 111.419 814.038 110.288C815.169 109.157 816.534 108.592 818.134 108.592C819.734 108.592 821.1 109.157 822.23 110.288C823.372 111.419 823.942 112.789 823.942 114.4ZM818.134 118.752C818.902 118.752 819.606 118.571 820.246 118.208L818.006 115.952L819.03 115.04L821.334 117.344C822.081 116.533 822.454 115.552 822.454 114.4C822.454 113.173 822.033 112.139 821.19 111.296C820.358 110.453 819.34 110.032 818.134 110.032C816.929 110.032 815.905 110.453 815.062 111.296C814.23 112.139 813.814 113.173 813.814 114.4C813.814 115.616 814.23 116.645 815.062 117.488C815.905 118.331 816.929 118.752 818.134 118.752ZM832.449 120L829.937 115.712H827.297V120H825.809V108.8H830.289C831.249 108.8 832.071 109.141 832.753 109.824C833.436 110.496 833.777 111.312 833.777 112.272C833.777 112.997 833.559 113.659 833.121 114.256C832.695 114.853 832.14 115.275 831.457 115.52L834.097 120H832.449ZM827.297 110.192V114.368H830.289C830.844 114.368 831.313 114.165 831.697 113.76C832.092 113.344 832.289 112.848 832.289 112.272C832.289 111.696 832.092 111.205 831.697 110.8C831.313 110.395 830.844 110.192 830.289 110.192H827.297ZM762.816 144.208C761.611 144.208 760.608 143.808 759.808 143.008C759.008 142.197 758.608 141.195 758.608 140C758.608 138.805 759.008 137.808 759.808 137.008C760.608 136.197 761.611 135.792 762.816 135.792C763.605 135.792 764.315 135.984 764.944 136.368C765.573 136.741 766.043 137.248 766.352 137.888L765.184 138.56C764.981 138.133 764.667 137.792 764.24 137.536C763.824 137.28 763.349 137.152 762.816 137.152C762.016 137.152 761.344 137.424 760.8 137.968C760.267 138.512 760 139.189 760 140C760 140.8 760.267 141.472 760.8 142.016C761.344 142.56 762.016 142.832 762.816 142.832C763.349 142.832 763.829 142.709 764.256 142.464C764.683 142.208 765.008 141.867 765.232 141.44L766.416 142.128C766.075 142.757 765.584 143.264 764.944 143.648C764.304 144.021 763.595 144.208 762.816 144.208ZM774.433 142.992C773.612 143.803 772.614 144.208 771.441 144.208C770.268 144.208 769.27 143.803 768.449 142.992C767.638 142.181 767.233 141.184 767.233 140C767.233 138.816 767.638 137.819 768.449 137.008C769.27 136.197 770.268 135.792 771.441 135.792C772.614 135.792 773.612 136.197 774.433 137.008C775.254 137.819 775.665 138.816 775.665 140C775.665 141.184 775.254 142.181 774.433 142.992ZM771.441 142.848C772.241 142.848 772.913 142.576 773.457 142.032C774.001 141.488 774.273 140.811 774.273 140C774.273 139.189 774.001 138.512 773.457 137.968C772.913 137.424 772.241 137.152 771.441 137.152C770.652 137.152 769.985 137.424 769.441 137.968C768.897 138.512 768.625 139.189 768.625 140C768.625 140.811 768.897 141.488 769.441 142.032C769.985 142.576 770.652 142.848 771.441 142.848ZM783.93 132.8H785.322V144H783.93V142.624C783.237 143.68 782.229 144.208 780.906 144.208C779.786 144.208 778.831 143.803 778.042 142.992C777.253 142.171 776.858 141.173 776.858 140C776.858 138.827 777.253 137.835 778.042 137.024C778.831 136.203 779.786 135.792 780.906 135.792C782.229 135.792 783.237 136.32 783.93 137.376V132.8ZM781.082 142.864C781.893 142.864 782.57 142.592 783.114 142.048C783.658 141.493 783.93 140.811 783.93 140C783.93 139.189 783.658 138.512 783.114 137.968C782.57 137.413 781.893 137.136 781.082 137.136C780.282 137.136 779.61 137.413 779.066 137.968C778.522 138.512 778.25 139.189 778.25 140C778.25 140.811 778.522 141.493 779.066 142.048C779.61 142.592 780.282 142.864 781.082 142.864ZM788.407 140.64C788.546 141.355 788.871 141.909 789.383 142.304C789.906 142.699 790.546 142.896 791.303 142.896C792.359 142.896 793.127 142.507 793.607 141.728L794.791 142.4C794.012 143.605 792.839 144.208 791.271 144.208C790.002 144.208 788.967 143.813 788.167 143.024C787.378 142.224 786.983 141.216 786.983 140C786.983 138.795 787.372 137.792 788.151 136.992C788.93 136.192 789.938 135.792 791.175 135.792C792.348 135.792 793.303 136.208 794.039 137.04C794.786 137.861 795.159 138.853 795.159 140.016C795.159 140.219 795.143 140.427 795.111 140.64H788.407ZM791.175 137.104C790.428 137.104 789.81 137.317 789.319 137.744C788.828 138.16 788.524 138.72 788.407 139.424H793.751C793.634 138.667 793.335 138.091 792.855 137.696C792.375 137.301 791.815 137.104 791.175 137.104ZM797.647 138.16C797.647 138.469 797.801 138.72 798.111 138.912C798.42 139.093 798.793 139.243 799.231 139.36C799.668 139.467 800.105 139.595 800.543 139.744C800.98 139.883 801.353 140.128 801.663 140.48C801.972 140.821 802.127 141.264 802.127 141.808C802.127 142.533 801.844 143.115 801.279 143.552C800.724 143.989 800.009 144.208 799.135 144.208C798.356 144.208 797.689 144.037 797.135 143.696C796.58 143.355 796.185 142.901 795.951 142.336L797.151 141.648C797.279 142.032 797.519 142.336 797.871 142.56C798.223 142.784 798.644 142.896 799.135 142.896C799.593 142.896 799.972 142.811 800.271 142.64C800.569 142.459 800.719 142.181 800.719 141.808C800.719 141.499 800.564 141.253 800.255 141.072C799.945 140.88 799.572 140.731 799.135 140.624C798.697 140.507 798.26 140.373 797.823 140.224C797.385 140.075 797.012 139.829 796.703 139.488C796.393 139.147 796.239 138.709 796.239 138.176C796.239 137.483 796.505 136.912 797.039 136.464C797.583 136.016 798.26 135.792 799.071 135.792C799.721 135.792 800.297 135.941 800.799 136.24C801.311 136.528 801.695 136.933 801.951 137.456L800.783 138.112C800.495 137.429 799.924 137.088 799.071 137.088C798.676 137.088 798.34 137.184 798.063 137.376C797.785 137.557 797.647 137.819 797.647 138.16ZM811.535 144.208C810.329 144.208 809.327 143.808 808.527 143.008C807.727 142.197 807.327 141.195 807.327 140C807.327 138.805 807.727 137.808 808.527 137.008C809.327 136.197 810.329 135.792 811.535 135.792C812.324 135.792 813.033 135.984 813.663 136.368C814.292 136.741 814.761 137.248 815.071 137.888L813.903 138.56C813.7 138.133 813.385 137.792 812.959 137.536C812.543 137.28 812.068 137.152 811.535 137.152C810.735 137.152 810.063 137.424 809.519 137.968C808.985 138.512 808.719 139.189 808.719 140C808.719 140.8 808.985 141.472 809.519 142.016C810.063 142.56 810.735 142.832 811.535 142.832C812.068 142.832 812.548 142.709 812.975 142.464C813.401 142.208 813.727 141.867 813.951 141.44L815.135 142.128C814.793 142.757 814.303 143.264 813.663 143.648C813.023 144.021 812.313 144.208 811.535 144.208ZM817.917 137.344C818.375 136.352 819.207 135.856 820.413 135.856V137.312C819.73 137.28 819.143 137.461 818.653 137.856C818.162 138.251 817.917 138.885 817.917 139.76V144H816.525V136H817.917V137.344ZM822.313 140.64C822.452 141.355 822.777 141.909 823.289 142.304C823.812 142.699 824.452 142.896 825.209 142.896C826.265 142.896 827.033 142.507 827.513 141.728L828.697 142.4C827.919 143.605 826.745 144.208 825.177 144.208C823.908 144.208 822.873 143.813 822.073 143.024C821.284 142.224 820.889 141.216 820.889 140C820.889 138.795 821.279 137.792 822.057 136.992C822.836 136.192 823.844 135.792 825.081 135.792C826.255 135.792 827.209 136.208 827.945 137.04C828.692 137.861 829.065 138.853 829.065 140.016C829.065 140.219 829.049 140.427 829.017 140.64H822.313ZM825.081 137.104C824.335 137.104 823.716 137.317 823.225 137.744C822.735 138.16 822.431 138.72 822.313 139.424H827.657C827.54 138.667 827.241 138.091 826.761 137.696C826.281 137.301 825.721 137.104 825.081 137.104ZM837.274 136H838.666V144H837.274V142.624C836.58 143.68 835.572 144.208 834.25 144.208C833.13 144.208 832.175 143.803 831.386 142.992C830.596 142.171 830.202 141.173 830.202 140C830.202 138.827 830.596 137.835 831.386 137.024C832.175 136.203 833.13 135.792 834.25 135.792C835.572 135.792 836.58 136.32 837.274 137.376V136ZM834.426 142.864C835.236 142.864 835.914 142.592 836.458 142.048C837.002 141.493 837.274 140.811 837.274 140C837.274 139.189 837.002 138.512 836.458 137.968C835.914 137.413 835.236 137.136 834.426 137.136C833.626 137.136 832.954 137.413 832.41 137.968C831.866 138.512 831.594 139.189 831.594 140C831.594 140.811 831.866 141.493 832.41 142.048C832.954 142.592 833.626 142.864 834.426 142.864ZM845.127 137.344H842.999V141.68C842.999 142.075 843.073 142.357 843.223 142.528C843.383 142.688 843.623 142.773 843.943 142.784C844.263 142.784 844.657 142.773 845.127 142.752V144C843.911 144.16 843.02 144.064 842.455 143.712C841.889 143.349 841.607 142.672 841.607 141.68V137.344H840.023V136H841.607V134.176L842.999 133.76V136H845.127V137.344ZM847.345 140.64C847.483 141.355 847.809 141.909 848.321 142.304C848.843 142.699 849.483 142.896 850.241 142.896C851.297 142.896 852.065 142.507 852.545 141.728L853.729 142.4C852.95 143.605 851.777 144.208 850.209 144.208C848.939 144.208 847.905 143.813 847.105 143.024C846.315 142.224 845.921 141.216 845.921 140C845.921 138.795 846.31 137.792 847.089 136.992C847.867 136.192 848.875 135.792 850.113 135.792C851.286 135.792 852.241 136.208 852.977 137.04C853.723 137.861 854.097 138.853 854.097 140.016C854.097 140.219 854.081 140.427 854.049 140.64H847.345ZM850.113 137.104C849.366 137.104 848.747 137.317 848.257 137.744C847.766 138.16 847.462 138.72 847.345 139.424H852.689C852.571 138.667 852.273 138.091 851.793 137.696C851.313 137.301 850.753 137.104 850.113 137.104ZM862.305 132.8H863.697V144H862.305V142.624C861.612 143.68 860.604 144.208 859.281 144.208C858.161 144.208 857.206 143.803 856.417 142.992C855.628 142.171 855.233 141.173 855.233 140C855.233 138.827 855.628 137.835 856.417 137.024C857.206 136.203 858.161 135.792 859.281 135.792C860.604 135.792 861.612 136.32 862.305 137.376V132.8ZM859.457 142.864C860.268 142.864 860.945 142.592 861.489 142.048C862.033 141.493 862.305 140.811 862.305 140C862.305 139.189 862.033 138.512 861.489 137.968C860.945 137.413 860.268 137.136 859.457 137.136C858.657 137.136 857.985 137.413 857.441 137.968C856.897 138.512 856.625 139.189 856.625 140C856.625 140.811 856.897 141.493 857.441 142.048C857.985 142.592 858.657 142.864 859.457 142.864Z" fill="#141414"/>
<path d="M967.304 66.6H970.504V89H966.824V70.536L962.312 71.816L961.416 68.68L967.304 66.6ZM988.33 77.384C989.312 77.896 990.08 78.6 990.634 79.496C991.189 80.392 991.466 81.4267 991.466 82.6C991.466 84.4347 990.816 85.96 989.514 87.176C988.213 88.392 986.624 89 984.746 89H975.146V66.6H984.042C985.877 66.6 987.424 67.1973 988.682 68.392C989.962 69.5653 990.602 71.0373 990.602 72.808C990.602 74.7493 989.845 76.2747 988.33 77.384ZM984.042 70.056H978.826V75.944H984.042C984.853 75.944 985.536 75.6667 986.09 75.112C986.645 74.536 986.922 73.832 986.922 73C986.922 72.168 986.645 71.4747 986.09 70.92C985.536 70.344 984.853 70.056 984.042 70.056ZM984.746 85.544C985.6 85.544 986.314 85.2453 986.89 84.648C987.488 84.0293 987.786 83.2827 987.786 82.408C987.786 81.5333 987.488 80.7973 986.89 80.2C986.314 79.5813 985.6 79.272 984.746 79.272H978.826V85.544H984.746Z" fill="#141414"/>
<path d="M967.464 120.208C965.768 120.208 964.365 119.648 963.256 118.528C962.157 117.408 961.608 116.032 961.608 114.4C961.608 112.768 962.157 111.392 963.256 110.272C964.365 109.152 965.768 108.592 967.464 108.592C968.488 108.592 969.427 108.837 970.28 109.328C971.144 109.819 971.816 110.48 972.296 111.312L971 112.064C970.68 111.445 970.2 110.955 969.56 110.592C968.931 110.219 968.232 110.032 967.464 110.032C966.173 110.032 965.117 110.448 964.296 111.28C963.485 112.112 963.08 113.152 963.08 114.4C963.08 115.637 963.485 116.672 964.296 117.504C965.117 118.336 966.173 118.752 967.464 118.752C968.232 118.752 968.931 118.571 969.56 118.208C970.2 117.835 970.68 117.344 971 116.736L972.296 117.472C971.827 118.304 971.16 118.971 970.296 119.472C969.432 119.963 968.488 120.208 967.464 120.208ZM973.884 120V108.32H975.276V120H973.884ZM978.104 110.544C977.837 110.544 977.613 110.453 977.432 110.272C977.25 110.091 977.16 109.872 977.16 109.616C977.16 109.36 977.25 109.141 977.432 108.96C977.613 108.768 977.837 108.672 978.104 108.672C978.36 108.672 978.578 108.768 978.76 108.96C978.941 109.141 979.032 109.36 979.032 109.616C979.032 109.872 978.941 110.091 978.76 110.272C978.578 110.453 978.36 110.544 978.104 110.544ZM977.4 120V112H978.792V120H977.4ZM984.675 120.208C983.47 120.208 982.467 119.808 981.667 119.008C980.867 118.197 980.467 117.195 980.467 116C980.467 114.805 980.867 113.808 981.667 113.008C982.467 112.197 983.47 111.792 984.675 111.792C985.465 111.792 986.174 111.984 986.803 112.368C987.433 112.741 987.902 113.248 988.211 113.888L987.043 114.56C986.841 114.133 986.526 113.792 986.099 113.536C985.683 113.28 985.209 113.152 984.675 113.152C983.875 113.152 983.203 113.424 982.659 113.968C982.126 114.512 981.859 115.189 981.859 116C981.859 116.8 982.126 117.472 982.659 118.016C983.203 118.56 983.875 118.832 984.675 118.832C985.209 118.832 985.689 118.709 986.115 118.464C986.542 118.208 986.867 117.867 987.091 117.44L988.275 118.128C987.934 118.757 987.443 119.264 986.803 119.648C986.163 120.021 985.454 120.208 984.675 120.208ZM996.418 120H994.69L991.042 116.208V120H989.65V108.8H991.042V115.536L994.498 112H996.29L992.466 115.872L996.418 120ZM997.954 116.64C998.093 117.355 998.418 117.909 998.93 118.304C999.453 118.699 1000.09 118.896 1000.85 118.896C1001.91 118.896 1002.67 118.507 1003.15 117.728L1004.34 118.4C1003.56 119.605 1002.39 120.208 1000.82 120.208C999.549 120.208 998.514 119.813 997.714 119.024C996.925 118.224 996.53 117.216 996.53 116C996.53 114.795 996.919 113.792 997.698 112.992C998.477 112.192 999.485 111.792 1000.72 111.792C1001.9 111.792 1002.85 112.208 1003.59 113.04C1004.33 113.861 1004.71 114.853 1004.71 116.016C1004.71 116.219 1004.69 116.427 1004.66 116.64H997.954ZM1000.72 113.104C999.975 113.104 999.357 113.317 998.866 113.744C998.375 114.16 998.071 114.72 997.954 115.424H1003.3C1003.18 114.667 1002.88 114.091 1002.4 113.696C1001.92 113.301 1001.36 113.104 1000.72 113.104ZM1012.91 108.8H1014.31V120H1012.91V118.624C1012.22 119.68 1011.21 120.208 1009.89 120.208C1008.77 120.208 1007.82 119.803 1007.03 118.992C1006.24 118.171 1005.84 117.173 1005.84 116C1005.84 114.827 1006.24 113.835 1007.03 113.024C1007.82 112.203 1008.77 111.792 1009.89 111.792C1011.21 111.792 1012.22 112.32 1012.91 113.376V108.8ZM1010.07 118.864C1010.88 118.864 1011.55 118.592 1012.1 118.048C1012.64 117.493 1012.91 116.811 1012.91 116C1012.91 115.189 1012.64 114.512 1012.1 113.968C1011.55 113.413 1010.88 113.136 1010.07 113.136C1009.27 113.136 1008.59 113.413 1008.05 113.968C1007.51 114.512 1007.23 115.189 1007.23 116C1007.23 116.811 1007.51 117.493 1008.05 118.048C1008.59 118.592 1009.27 118.864 1010.07 118.864ZM1029.58 119.536L1028.34 120.256L1027.2 119.04C1026.37 119.819 1025.3 120.208 1024 120.208C1022.88 120.208 1021.97 119.92 1021.28 119.344C1020.59 118.757 1020.24 117.968 1020.24 116.976C1020.24 116.293 1020.41 115.669 1020.75 115.104C1021.1 114.528 1021.62 114.075 1022.29 113.744C1021.81 113.136 1021.57 112.459 1021.57 111.712C1021.57 110.784 1021.89 110.032 1022.53 109.456C1023.18 108.88 1023.96 108.592 1024.86 108.592C1025.61 108.592 1026.29 108.795 1026.9 109.2C1027.5 109.605 1027.94 110.165 1028.21 110.88L1026.96 111.6C1026.8 111.109 1026.53 110.725 1026.16 110.448C1025.8 110.171 1025.38 110.032 1024.9 110.032C1024.38 110.032 1023.95 110.187 1023.58 110.496C1023.23 110.805 1023.06 111.205 1023.06 111.696C1023.06 112.048 1023.14 112.368 1023.3 112.656C1023.47 112.933 1023.72 113.248 1024.05 113.6L1027.1 116.864C1027.37 116.309 1027.56 115.632 1027.68 114.832L1028.96 115.568C1028.81 116.453 1028.52 117.248 1028.1 117.952L1029.58 119.536ZM1024.03 118.8C1024.92 118.8 1025.65 118.539 1026.24 118.016L1023.22 114.768C1022.7 114.981 1022.32 115.28 1022.08 115.664C1021.84 116.048 1021.73 116.453 1021.73 116.88C1021.73 117.477 1021.93 117.947 1022.34 118.288C1022.74 118.629 1023.31 118.8 1024.03 118.8ZM1038.77 120.208C1037.72 120.208 1036.83 119.963 1036.08 119.472C1035.35 118.981 1034.83 118.309 1034.53 117.456L1035.81 116.72C1036.25 118.075 1037.24 118.752 1038.8 118.752C1039.57 118.752 1040.16 118.597 1040.56 118.288C1040.97 117.968 1041.17 117.547 1041.17 117.024C1041.17 116.491 1040.97 116.091 1040.56 115.824C1040.16 115.557 1039.48 115.275 1038.53 114.976C1038.06 114.827 1037.7 114.709 1037.46 114.624C1037.21 114.528 1036.9 114.389 1036.53 114.208C1036.17 114.016 1035.89 113.824 1035.71 113.632C1035.53 113.429 1035.37 113.168 1035.22 112.848C1035.08 112.528 1035.01 112.165 1035.01 111.76C1035.01 110.789 1035.35 110.021 1036.03 109.456C1036.72 108.88 1037.55 108.592 1038.53 108.592C1039.41 108.592 1040.18 108.816 1040.83 109.264C1041.49 109.712 1041.99 110.304 1042.32 111.04L1041.07 111.76C1040.59 110.608 1039.75 110.032 1038.53 110.032C1037.92 110.032 1037.43 110.181 1037.06 110.48C1036.68 110.779 1036.5 111.184 1036.5 111.696C1036.5 112.187 1036.67 112.56 1037.03 112.816C1037.38 113.072 1037.99 113.339 1038.85 113.616C1039.16 113.712 1039.38 113.781 1039.51 113.824C1039.63 113.867 1039.83 113.941 1040.1 114.048C1040.37 114.155 1040.58 114.24 1040.71 114.304C1040.83 114.368 1041 114.459 1041.22 114.576C1041.44 114.693 1041.61 114.805 1041.71 114.912C1041.82 115.019 1041.94 115.152 1042.08 115.312C1042.23 115.461 1042.34 115.616 1042.4 115.776C1042.47 115.936 1042.52 116.123 1042.56 116.336C1042.61 116.539 1042.64 116.757 1042.64 116.992C1042.64 117.973 1042.28 118.757 1041.57 119.344C1040.85 119.92 1039.92 120.208 1038.77 120.208ZM1048.21 120.208C1047 120.208 1046 119.808 1045.2 119.008C1044.4 118.197 1044 117.195 1044 116C1044 114.805 1044.4 113.808 1045.2 113.008C1046 112.197 1047 111.792 1048.21 111.792C1049 111.792 1049.71 111.984 1050.33 112.368C1050.96 112.741 1051.43 113.248 1051.74 113.888L1050.57 114.56C1050.37 114.133 1050.06 113.792 1049.63 113.536C1049.21 113.28 1048.74 113.152 1048.21 113.152C1047.41 113.152 1046.73 113.424 1046.19 113.968C1045.66 114.512 1045.39 115.189 1045.39 116C1045.39 116.8 1045.66 117.472 1046.19 118.016C1046.73 118.56 1047.41 118.832 1048.21 118.832C1048.74 118.832 1049.22 118.709 1049.65 118.464C1050.07 118.208 1050.4 117.867 1050.62 117.44L1051.81 118.128C1051.47 118.757 1050.97 119.264 1050.33 119.648C1049.69 120.021 1048.99 120.208 1048.21 120.208ZM1059.7 112H1061.09V120H1059.7V118.624C1059 119.68 1057.99 120.208 1056.67 120.208C1055.55 120.208 1054.6 119.803 1053.81 118.992C1053.02 118.171 1052.62 117.173 1052.62 116C1052.62 114.827 1053.02 113.835 1053.81 113.024C1054.6 112.203 1055.55 111.792 1056.67 111.792C1057.99 111.792 1059 112.32 1059.7 113.376V112ZM1056.85 118.864C1057.66 118.864 1058.34 118.592 1058.88 118.048C1059.42 117.493 1059.7 116.811 1059.7 116C1059.7 115.189 1059.42 114.512 1058.88 113.968C1058.34 113.413 1057.66 113.136 1056.85 113.136C1056.05 113.136 1055.38 113.413 1054.83 113.968C1054.29 114.512 1054.02 115.189 1054.02 116C1054.02 116.811 1054.29 117.493 1054.83 118.048C1055.38 118.592 1056.05 118.864 1056.85 118.864ZM1067.18 111.792C1068.12 111.792 1068.87 112.091 1069.44 112.688C1070 113.275 1070.28 114.075 1070.28 115.088V120H1068.89V115.168C1068.89 114.517 1068.72 114.016 1068.36 113.664C1068.01 113.301 1067.53 113.12 1066.91 113.12C1066.22 113.12 1065.66 113.339 1065.23 113.776C1064.8 114.203 1064.59 114.864 1064.59 115.76V120H1063.2V112H1064.59V113.152C1065.15 112.245 1066.02 111.792 1067.18 111.792ZM1076.21 111.792C1077.15 111.792 1077.9 112.091 1078.47 112.688C1079.03 113.275 1079.32 114.075 1079.32 115.088V120H1077.92V115.168C1077.92 114.517 1077.75 114.016 1077.4 113.664C1077.04 113.301 1076.56 113.12 1075.94 113.12C1075.25 113.12 1074.69 113.339 1074.26 113.776C1073.83 114.203 1073.62 114.864 1073.62 115.76V120H1072.23V112H1073.62V113.152C1074.19 112.245 1075.05 111.792 1076.21 111.792ZM1082.24 116.64C1082.37 117.355 1082.7 117.909 1083.21 118.304C1083.73 118.699 1084.37 118.896 1085.13 118.896C1086.19 118.896 1086.96 118.507 1087.44 117.728L1088.62 118.4C1087.84 119.605 1086.67 120.208 1085.1 120.208C1083.83 120.208 1082.8 119.813 1082 119.024C1081.21 118.224 1080.81 117.216 1080.81 116C1080.81 114.795 1081.2 113.792 1081.98 112.992C1082.76 112.192 1083.77 111.792 1085 111.792C1086.18 111.792 1087.13 112.208 1087.87 113.04C1088.61 113.861 1088.99 114.853 1088.99 116.016C1088.99 116.219 1088.97 116.427 1088.94 116.64H1082.24ZM1085 113.104C1084.26 113.104 1083.64 113.317 1083.15 113.744C1082.66 114.16 1082.35 114.72 1082.24 115.424H1087.58C1087.46 114.667 1087.16 114.091 1086.68 113.696C1086.2 113.301 1085.64 113.104 1085 113.104ZM1097.2 108.8H1098.59V120H1097.2V118.624C1096.5 119.68 1095.49 120.208 1094.17 120.208C1093.05 120.208 1092.1 119.803 1091.31 118.992C1090.52 118.171 1090.12 117.173 1090.12 116C1090.12 114.827 1090.52 113.835 1091.31 113.024C1092.1 112.203 1093.05 111.792 1094.17 111.792C1095.49 111.792 1096.5 112.32 1097.2 113.376V108.8ZM1094.35 118.864C1095.16 118.864 1095.84 118.592 1096.38 118.048C1096.92 117.493 1097.2 116.811 1097.2 116C1097.2 115.189 1096.92 114.512 1096.38 113.968C1095.84 113.413 1095.16 113.136 1094.35 113.136C1093.55 113.136 1092.88 113.413 1092.33 113.968C1091.79 114.512 1091.52 115.189 1091.52 116C1091.52 116.811 1091.79 117.493 1092.33 118.048C1092.88 118.592 1093.55 118.864 1094.35 118.864ZM965.816 144.208C964.611 144.208 963.608 143.808 962.808 143.008C962.008 142.197 961.608 141.195 961.608 140C961.608 138.805 962.008 137.808 962.808 137.008C963.608 136.197 964.611 135.792 965.816 135.792C966.605 135.792 967.315 135.984 967.944 136.368C968.573 136.741 969.043 137.248 969.352 137.888L968.184 138.56C967.981 138.133 967.667 137.792 967.24 137.536C966.824 137.28 966.349 137.152 965.816 137.152C965.016 137.152 964.344 137.424 963.8 137.968C963.267 138.512 963 139.189 963 140C963 140.8 963.267 141.472 963.8 142.016C964.344 142.56 965.016 142.832 965.816 142.832C966.349 142.832 966.829 142.709 967.256 142.464C967.683 142.208 968.008 141.867 968.232 141.44L969.416 142.128C969.075 142.757 968.584 143.264 967.944 143.648C967.304 144.021 966.595 144.208 965.816 144.208ZM977.433 142.992C976.612 143.803 975.614 144.208 974.441 144.208C973.268 144.208 972.27 143.803 971.449 142.992C970.638 142.181 970.233 141.184 970.233 140C970.233 138.816 970.638 137.819 971.449 137.008C972.27 136.197 973.268 135.792 974.441 135.792C975.614 135.792 976.612 136.197 977.433 137.008C978.254 137.819 978.665 138.816 978.665 140C978.665 141.184 978.254 142.181 977.433 142.992ZM974.441 142.848C975.241 142.848 975.913 142.576 976.457 142.032C977.001 141.488 977.273 140.811 977.273 140C977.273 139.189 977.001 138.512 976.457 137.968C975.913 137.424 975.241 137.152 974.441 137.152C973.652 137.152 972.985 137.424 972.441 137.968C971.897 138.512 971.625 139.189 971.625 140C971.625 140.811 971.897 141.488 972.441 142.032C972.985 142.576 973.652 142.848 974.441 142.848ZM984.29 135.792C985.229 135.792 985.981 136.091 986.546 136.688C987.111 137.275 987.394 138.075 987.394 139.088V144H986.002V139.168C986.002 138.517 985.826 138.016 985.474 137.664C985.122 137.301 984.637 137.12 984.018 137.12C983.325 137.12 982.765 137.339 982.338 137.776C981.911 138.203 981.698 138.864 981.698 139.76V144H980.306V136H981.698V137.152C982.263 136.245 983.127 135.792 984.29 135.792ZM993.321 135.792C994.26 135.792 995.012 136.091 995.577 136.688C996.143 137.275 996.425 138.075 996.425 139.088V144H995.033V139.168C995.033 138.517 994.857 138.016 994.505 137.664C994.153 137.301 993.668 137.12 993.049 137.12C992.356 137.12 991.796 137.339 991.369 137.776C990.943 138.203 990.729 138.864 990.729 139.76V144H989.337V136H990.729V137.152C991.295 136.245 992.159 135.792 993.321 135.792ZM999.345 140.64C999.483 141.355 999.809 141.909 1000.32 142.304C1000.84 142.699 1001.48 142.896 1002.24 142.896C1003.3 142.896 1004.06 142.507 1004.54 141.728L1005.73 142.4C1004.95 143.605 1003.78 144.208 1002.21 144.208C1000.94 144.208 999.905 143.813 999.105 143.024C998.315 142.224 997.921 141.216 997.921 140C997.921 138.795 998.31 137.792 999.089 136.992C999.867 136.192 1000.88 135.792 1002.11 135.792C1003.29 135.792 1004.24 136.208 1004.98 137.04C1005.72 137.861 1006.1 138.853 1006.1 140.016C1006.1 140.219 1006.08 140.427 1006.05 140.64H999.345ZM1002.11 137.104C1001.37 137.104 1000.75 137.317 1000.26 137.744C999.766 138.16 999.462 138.72 999.345 139.424H1004.69C1004.57 138.667 1004.27 138.091 1003.79 137.696C1003.31 137.301 1002.75 137.104 1002.11 137.104ZM1011.44 144.208C1010.24 144.208 1009.23 143.808 1008.43 143.008C1007.63 142.197 1007.23 141.195 1007.23 140C1007.23 138.805 1007.63 137.808 1008.43 137.008C1009.23 136.197 1010.24 135.792 1011.44 135.792C1012.23 135.792 1012.94 135.984 1013.57 136.368C1014.2 136.741 1014.67 137.248 1014.98 137.888L1013.81 138.56C1013.61 138.133 1013.29 137.792 1012.87 137.536C1012.45 137.28 1011.97 137.152 1011.44 137.152C1010.64 137.152 1009.97 137.424 1009.43 137.968C1008.89 138.512 1008.62 139.189 1008.62 140C1008.62 140.8 1008.89 141.472 1009.43 142.016C1009.97 142.56 1010.64 142.832 1011.44 142.832C1011.97 142.832 1012.45 142.709 1012.88 142.464C1013.31 142.208 1013.63 141.867 1013.86 141.44L1015.04 142.128C1014.7 142.757 1014.21 143.264 1013.57 143.648C1012.93 144.021 1012.22 144.208 1011.44 144.208ZM1020.77 137.344H1018.64V141.68C1018.64 142.075 1018.71 142.357 1018.86 142.528C1019.02 142.688 1019.26 142.773 1019.58 142.784C1019.9 142.784 1020.3 142.773 1020.77 142.752V144C1019.55 144.16 1018.66 144.064 1018.1 143.712C1017.53 143.349 1017.25 142.672 1017.25 141.68V137.344H1015.66V136H1017.25V134.176L1018.64 133.76V136H1020.77V137.344ZM1023.12 134.544C1022.85 134.544 1022.63 134.453 1022.45 134.272C1022.27 134.091 1022.18 133.872 1022.18 133.616C1022.18 133.36 1022.27 133.141 1022.45 132.96C1022.63 132.768 1022.85 132.672 1023.12 132.672C1023.38 132.672 1023.59 132.768 1023.78 132.96C1023.96 133.141 1024.05 133.36 1024.05 133.616C1024.05 133.872 1023.96 134.091 1023.78 134.272C1023.59 134.453 1023.38 134.544 1023.12 134.544ZM1022.42 144V136H1023.81V144H1022.42ZM1032.68 142.992C1031.86 143.803 1030.86 144.208 1029.69 144.208C1028.52 144.208 1027.52 143.803 1026.7 142.992C1025.89 142.181 1025.48 141.184 1025.48 140C1025.48 138.816 1025.89 137.819 1026.7 137.008C1027.52 136.197 1028.52 135.792 1029.69 135.792C1030.86 135.792 1031.86 136.197 1032.68 137.008C1033.5 137.819 1033.91 138.816 1033.91 140C1033.91 141.184 1033.5 142.181 1032.68 142.992ZM1029.69 142.848C1030.49 142.848 1031.16 142.576 1031.71 142.032C1032.25 141.488 1032.52 140.811 1032.52 140C1032.52 139.189 1032.25 138.512 1031.71 137.968C1031.16 137.424 1030.49 137.152 1029.69 137.152C1028.9 137.152 1028.24 137.424 1027.69 137.968C1027.15 138.512 1026.88 139.189 1026.88 140C1026.88 140.811 1027.15 141.488 1027.69 142.032C1028.24 142.576 1028.9 142.848 1029.69 142.848ZM1039.54 135.792C1040.48 135.792 1041.23 136.091 1041.8 136.688C1042.36 137.275 1042.64 138.075 1042.64 139.088V144H1041.25V139.168C1041.25 138.517 1041.08 138.016 1040.72 137.664C1040.37 137.301 1039.89 137.12 1039.27 137.12C1038.57 137.12 1038.01 137.339 1037.59 137.776C1037.16 138.203 1036.95 138.864 1036.95 139.76V144H1035.56V136H1036.95V137.152C1037.51 136.245 1038.38 135.792 1039.54 135.792ZM1045.79 138.16C1045.79 138.469 1045.94 138.72 1046.25 138.912C1046.56 139.093 1046.93 139.243 1047.37 139.36C1047.81 139.467 1048.25 139.595 1048.68 139.744C1049.12 139.883 1049.49 140.128 1049.8 140.48C1050.11 140.821 1050.27 141.264 1050.27 141.808C1050.27 142.533 1049.98 143.115 1049.42 143.552C1048.86 143.989 1048.15 144.208 1047.28 144.208C1046.5 144.208 1045.83 144.037 1045.28 143.696C1044.72 143.355 1044.33 142.901 1044.09 142.336L1045.29 141.648C1045.42 142.032 1045.66 142.336 1046.01 142.56C1046.36 142.784 1046.78 142.896 1047.28 142.896C1047.73 142.896 1048.11 142.811 1048.41 142.64C1048.71 142.459 1048.86 142.181 1048.86 141.808C1048.86 141.499 1048.7 141.253 1048.4 141.072C1048.09 140.88 1047.71 140.731 1047.28 140.624C1046.84 140.507 1046.4 140.373 1045.96 140.224C1045.53 140.075 1045.15 139.829 1044.84 139.488C1044.53 139.147 1044.38 138.709 1044.38 138.176C1044.38 137.483 1044.65 136.912 1045.18 136.464C1045.72 136.016 1046.4 135.792 1047.21 135.792C1047.86 135.792 1048.44 135.941 1048.94 136.24C1049.45 136.528 1049.84 136.933 1050.09 137.456L1048.92 138.112C1048.64 137.429 1048.06 137.088 1047.21 137.088C1046.82 137.088 1046.48 137.184 1046.2 137.376C1045.93 137.557 1045.79 137.819 1045.79 138.16Z" fill="#141414"/>
<path d="M1186.69 75.752C1188.31 76.136 1189.62 76.8933 1190.62 78.024C1191.65 79.1333 1192.16 80.5307 1192.16 82.216C1192.16 84.456 1191.4 86.216 1189.89 87.496C1188.37 88.776 1186.52 89.416 1184.32 89.416C1182.61 89.416 1181.08 89.0213 1179.71 88.232C1178.37 87.4427 1177.4 86.2907 1176.8 84.776L1179.94 82.952C1180.6 84.872 1182.06 85.832 1184.32 85.832C1185.6 85.832 1186.61 85.512 1187.36 84.872C1188.11 84.2107 1188.48 83.3253 1188.48 82.216C1188.48 81.1067 1188.11 80.232 1187.36 79.592C1186.61 78.952 1185.6 78.632 1184.32 78.632H1183.49L1182.02 76.424L1186.85 70.056H1177.47V66.6H1191.23V69.736L1186.69 75.752ZM1209.83 86.248C1208.29 88.36 1206.13 89.416 1203.36 89.416C1200.59 89.416 1198.42 88.36 1196.87 86.248C1195.33 84.136 1194.56 81.32 1194.56 77.8C1194.56 74.28 1195.33 71.464 1196.87 69.352C1198.42 67.24 1200.59 66.184 1203.36 66.184C1206.13 66.184 1208.29 67.24 1209.83 69.352C1211.38 71.464 1212.16 74.28 1212.16 77.8C1212.16 81.32 1211.38 84.136 1209.83 86.248ZM1203.36 85.832C1205.03 85.832 1206.29 85.1387 1207.17 83.752C1208.04 82.3653 1208.48 80.3813 1208.48 77.8C1208.48 75.2187 1208.04 73.2347 1207.17 71.848C1206.29 70.4613 1205.03 69.768 1203.36 69.768C1201.72 69.768 1200.45 70.4613 1199.55 71.848C1198.68 73.2347 1198.24 75.2187 1198.24 77.8C1198.24 80.3813 1198.68 82.3653 1199.55 83.752C1200.45 85.1387 1201.72 85.832 1203.36 85.832ZM1229.98 86.248C1228.45 88.36 1226.29 89.416 1223.52 89.416C1220.74 89.416 1218.58 88.36 1217.02 86.248C1215.49 84.136 1214.72 81.32 1214.72 77.8C1214.72 74.28 1215.49 71.464 1217.02 69.352C1218.58 67.24 1220.74 66.184 1223.52 66.184C1226.29 66.184 1228.45 67.24 1229.98 69.352C1231.54 71.464 1232.32 74.28 1232.32 77.8C1232.32 81.32 1231.54 84.136 1229.98 86.248ZM1223.52 85.832C1225.18 85.832 1226.45 85.1387 1227.33 83.752C1228.2 82.3653 1228.64 80.3813 1228.64 77.8C1228.64 75.2187 1228.2 73.2347 1227.33 71.848C1226.45 70.4613 1225.18 69.768 1223.52 69.768C1221.87 69.768 1220.61 70.4613 1219.71 71.848C1218.83 73.2347 1218.4 75.2187 1218.4 77.8C1218.4 80.3813 1218.83 82.3653 1219.71 83.752C1220.61 85.1387 1221.87 85.832 1223.52 85.832ZM1249.75 89H1245.63L1239.07 81.608V89H1235.61V66.6H1239.07V80.072L1245.27 73H1249.5L1242.46 80.84L1249.75 89Z" fill="#141414"/>
<path d="M1184.58 120L1183.66 117.488H1178.62L1177.71 120H1176.13L1180.3 108.8H1181.98L1186.16 120H1184.58ZM1179.14 116.096H1183.15L1181.14 110.576L1179.14 116.096ZM1191.75 111.792C1192.87 111.792 1193.83 112.203 1194.62 113.024C1195.41 113.835 1195.8 114.827 1195.8 116C1195.8 117.173 1195.41 118.171 1194.62 118.992C1193.83 119.803 1192.87 120.208 1191.75 120.208C1190.43 120.208 1189.42 119.68 1188.73 118.624V123.2H1187.34V112H1188.73V113.376C1189.42 112.32 1190.43 111.792 1191.75 111.792ZM1191.58 118.864C1192.38 118.864 1193.05 118.592 1193.59 118.048C1194.14 117.493 1194.41 116.811 1194.41 116C1194.41 115.189 1194.14 114.512 1193.59 113.968C1193.05 113.413 1192.38 113.136 1191.58 113.136C1190.77 113.136 1190.09 113.413 1189.55 113.968C1189 114.512 1188.73 115.189 1188.73 116C1188.73 116.811 1189 117.493 1189.55 118.048C1190.09 118.592 1190.77 118.864 1191.58 118.864ZM1201.88 111.792C1203 111.792 1203.95 112.203 1204.74 113.024C1205.53 113.835 1205.93 114.827 1205.93 116C1205.93 117.173 1205.53 118.171 1204.74 118.992C1203.95 119.803 1203 120.208 1201.88 120.208C1200.56 120.208 1199.55 119.68 1198.85 118.624V123.2H1197.46V112H1198.85V113.376C1199.55 112.32 1200.56 111.792 1201.88 111.792ZM1201.7 118.864C1202.5 118.864 1203.17 118.592 1203.72 118.048C1204.26 117.493 1204.53 116.811 1204.53 116C1204.53 115.189 1204.26 114.512 1203.72 113.968C1203.17 113.413 1202.5 113.136 1201.7 113.136C1200.89 113.136 1200.21 113.413 1199.67 113.968C1199.13 114.512 1198.85 115.189 1198.85 116C1198.85 116.811 1199.13 117.493 1199.67 118.048C1200.21 118.592 1200.89 118.864 1201.7 118.864ZM1211.73 108.8H1213.22V120H1211.73V108.8ZM1219.46 111.792C1220.4 111.792 1221.15 112.091 1221.72 112.688C1222.28 113.275 1222.57 114.075 1222.57 115.088V120H1221.17V115.168C1221.17 114.517 1221 114.016 1220.65 113.664C1220.29 113.301 1219.81 113.12 1219.19 113.12C1218.5 113.12 1217.94 113.339 1217.51 113.776C1217.08 114.203 1216.87 114.864 1216.87 115.76V120H1215.48V112H1216.87V113.152C1217.44 112.245 1218.3 111.792 1219.46 111.792ZM1228.86 113.344H1226.73V117.68C1226.73 118.075 1226.81 118.357 1226.96 118.528C1227.12 118.688 1227.36 118.773 1227.68 118.784C1228 118.784 1228.39 118.773 1228.86 118.752V120C1227.65 120.16 1226.75 120.064 1226.19 119.712C1225.62 119.349 1225.34 118.672 1225.34 117.68V113.344H1223.76V112H1225.34V110.176L1226.73 109.76V112H1228.86V113.344ZM1231.08 116.64C1231.22 117.355 1231.54 117.909 1232.05 118.304C1232.58 118.699 1233.22 118.896 1233.97 118.896C1235.03 118.896 1235.8 118.507 1236.28 117.728L1237.46 118.4C1236.68 119.605 1235.51 120.208 1233.94 120.208C1232.67 120.208 1231.64 119.813 1230.84 119.024C1230.05 118.224 1229.65 117.216 1229.65 116C1229.65 114.795 1230.04 113.792 1230.82 112.992C1231.6 112.192 1232.61 111.792 1233.85 111.792C1235.02 111.792 1235.97 112.208 1236.71 113.04C1237.46 113.861 1237.83 114.853 1237.83 116.016C1237.83 116.219 1237.81 116.427 1237.78 116.64H1231.08ZM1233.85 113.104C1233.1 113.104 1232.48 113.317 1231.99 113.744C1231.5 114.16 1231.2 114.72 1231.08 115.424H1236.42C1236.31 114.667 1236.01 114.091 1235.53 113.696C1235.05 113.301 1234.49 113.104 1233.85 113.104ZM1246.06 112H1247.43V119.664C1247.43 120.848 1247.03 121.765 1246.23 122.416C1245.43 123.077 1244.47 123.408 1243.35 123.408C1242.46 123.408 1241.68 123.237 1241.03 122.896C1240.38 122.565 1239.89 122.085 1239.56 121.456L1240.78 120.768C1241.21 121.664 1242.08 122.112 1243.38 122.112C1244.22 122.112 1244.87 121.893 1245.34 121.456C1245.82 121.019 1246.06 120.421 1246.06 119.664V118.528C1245.35 119.595 1244.35 120.128 1243.05 120.128C1241.91 120.128 1240.94 119.723 1240.15 118.912C1239.36 118.101 1238.97 117.115 1238.97 115.952C1238.97 114.789 1239.36 113.808 1240.15 113.008C1240.94 112.197 1241.91 111.792 1243.05 111.792C1244.36 111.792 1245.36 112.32 1246.06 113.376V112ZM1241.18 117.984C1241.72 118.528 1242.4 118.8 1243.21 118.8C1244.02 118.8 1244.7 118.528 1245.24 117.984C1245.78 117.44 1246.06 116.763 1246.06 115.952C1246.06 115.152 1245.78 114.48 1245.24 113.936C1244.7 113.392 1244.02 113.12 1243.21 113.12C1242.4 113.12 1241.72 113.392 1241.18 113.936C1240.63 114.48 1240.36 115.152 1240.36 115.952C1240.36 116.763 1240.63 117.44 1241.18 117.984ZM1250.93 113.344C1251.39 112.352 1252.22 111.856 1253.43 111.856V113.312C1252.75 113.28 1252.16 113.461 1251.67 113.856C1251.18 114.251 1250.93 114.885 1250.93 115.76V120H1249.54V112H1250.93V113.344ZM1260.98 112H1262.37V120H1260.98V118.624C1260.28 119.68 1259.28 120.208 1257.95 120.208C1256.83 120.208 1255.88 119.803 1255.09 118.992C1254.3 118.171 1253.9 117.173 1253.9 116C1253.9 114.827 1254.3 113.835 1255.09 113.024C1255.88 112.203 1256.83 111.792 1257.95 111.792C1259.28 111.792 1260.28 112.32 1260.98 113.376V112ZM1258.13 118.864C1258.94 118.864 1259.62 118.592 1260.16 118.048C1260.7 117.493 1260.98 116.811 1260.98 116C1260.98 115.189 1260.7 114.512 1260.16 113.968C1259.62 113.413 1258.94 113.136 1258.13 113.136C1257.33 113.136 1256.66 113.413 1256.11 113.968C1255.57 114.512 1255.3 115.189 1255.3 116C1255.3 116.811 1255.57 117.493 1256.11 118.048C1256.66 118.592 1257.33 118.864 1258.13 118.864ZM1268.83 113.344H1266.7V117.68C1266.7 118.075 1266.78 118.357 1266.93 118.528C1267.09 118.688 1267.33 118.773 1267.65 118.784C1267.97 118.784 1268.36 118.773 1268.83 118.752V120C1267.61 120.16 1266.72 120.064 1266.16 119.712C1265.59 119.349 1265.31 118.672 1265.31 117.68V113.344H1263.73V112H1265.31V110.176L1266.7 109.76V112H1268.83V113.344ZM1271.18 110.544C1270.92 110.544 1270.69 110.453 1270.51 110.272C1270.33 110.091 1270.24 109.872 1270.24 109.616C1270.24 109.36 1270.33 109.141 1270.51 108.96C1270.69 108.768 1270.92 108.672 1271.18 108.672C1271.44 108.672 1271.66 108.768 1271.84 108.96C1272.02 109.141 1272.11 109.36 1272.11 109.616C1272.11 109.872 1272.02 110.091 1271.84 110.272C1271.66 110.453 1271.44 110.544 1271.18 110.544ZM1270.48 120V112H1271.87V120H1270.48ZM1280.75 118.992C1279.92 119.803 1278.93 120.208 1277.75 120.208C1276.58 120.208 1275.58 119.803 1274.76 118.992C1273.95 118.181 1273.55 117.184 1273.55 116C1273.55 114.816 1273.95 113.819 1274.76 113.008C1275.58 112.197 1276.58 111.792 1277.75 111.792C1278.93 111.792 1279.92 112.197 1280.75 113.008C1281.57 113.819 1281.98 114.816 1281.98 116C1281.98 117.184 1281.57 118.181 1280.75 118.992ZM1277.75 118.848C1278.55 118.848 1279.23 118.576 1279.77 118.032C1280.31 117.488 1280.59 116.811 1280.59 116C1280.59 115.189 1280.31 114.512 1279.77 113.968C1279.23 113.424 1278.55 113.152 1277.75 113.152C1276.96 113.152 1276.3 113.424 1275.75 113.968C1275.21 114.512 1274.94 115.189 1274.94 116C1274.94 116.811 1275.21 117.488 1275.75 118.032C1276.3 118.576 1276.96 118.848 1277.75 118.848ZM1287.6 111.792C1288.54 111.792 1289.29 112.091 1289.86 112.688C1290.42 113.275 1290.71 114.075 1290.71 115.088V120H1289.31V115.168C1289.31 114.517 1289.14 114.016 1288.79 113.664C1288.43 113.301 1287.95 113.12 1287.33 113.12C1286.64 113.12 1286.08 113.339 1285.65 113.776C1285.22 114.203 1285.01 114.864 1285.01 115.76V120H1283.62V112H1285.01V113.152C1285.58 112.245 1286.44 111.792 1287.6 111.792ZM1293.85 114.16C1293.85 114.469 1294 114.72 1294.31 114.912C1294.62 115.093 1295 115.243 1295.43 115.36C1295.87 115.467 1296.31 115.595 1296.75 115.744C1297.18 115.883 1297.56 116.128 1297.87 116.48C1298.18 116.821 1298.33 117.264 1298.33 117.808C1298.33 118.533 1298.05 119.115 1297.48 119.552C1296.93 119.989 1296.21 120.208 1295.34 120.208C1294.56 120.208 1293.89 120.037 1293.34 119.696C1292.78 119.355 1292.39 118.901 1292.15 118.336L1293.35 117.648C1293.48 118.032 1293.72 118.336 1294.07 118.56C1294.43 118.784 1294.85 118.896 1295.34 118.896C1295.8 118.896 1296.18 118.811 1296.47 118.64C1296.77 118.459 1296.92 118.181 1296.92 117.808C1296.92 117.499 1296.77 117.253 1296.46 117.072C1296.15 116.88 1295.78 116.731 1295.34 116.624C1294.9 116.507 1294.46 116.373 1294.03 116.224C1293.59 116.075 1293.22 115.829 1292.91 115.488C1292.6 115.147 1292.44 114.709 1292.44 114.176C1292.44 113.483 1292.71 112.912 1293.24 112.464C1293.79 112.016 1294.46 111.792 1295.27 111.792C1295.92 111.792 1296.5 111.941 1297 112.24C1297.51 112.528 1297.9 112.933 1298.15 113.456L1296.99 114.112C1296.7 113.429 1296.13 113.088 1295.27 113.088C1294.88 113.088 1294.54 113.184 1294.27 113.376C1293.99 113.557 1293.85 113.819 1293.85 114.16Z" fill="#141414"/>
</svg>
