<svg width="1440" height="523" viewBox="0 0 1440 523" fill="none" xmlns="http://www.w3.org/2000/svg">
<g clip-path="url(#clip0_1_338)">
<rect width="1440" height="523" fill="url(#paint0_linear_1_338)"/>
<g opacity="0.7">
<path fill-rule="evenodd" clip-rule="evenodd" d="M927.5 885.504C937.766 758.506 1017.04 505.09 1059.91 409.451C1099.74 320.572 1120.06 286.553 1177.5 255.009C1232.59 224.755 1318.25 266.193 1375 279.105C1447.73 295.652 1551.64 199.727 1588.88 326.258C1627.19 456.419 1553.85 608.999 1532.8 754.157C1518.8 850.651 1508.17 942.658 1486.35 1033.11C1459.2 1145.66 1449.47 1304.47 1390.44 1344.32C1331.48 1384.11 1281.69 1236.75 1220.68 1212.44C1145.6 1182.54 1052.14 1294.21 997.002 1187.6C943.602 1084.35 915.623 1032.44 927.5 885.504Z" fill="url(#paint1_linear_1_338)" fill-opacity="0.3"/>
<path fill-rule="evenodd" clip-rule="evenodd" d="M1039.14 937.809C1040.37 824.743 1053.74 713.788 1085.25 620.045C1114.53 532.927 1159.8 477.254 1207.89 435.743C1254.01 395.926 1293.81 438.388 1344 435.743C1408.32 432.355 1500.59 317.17 1540.68 418.209C1581.93 522.147 1527.35 672.911 1517.83 804.427C1511.5 891.85 1507.83 974.548 1494.32 1058.63C1477.52 1163.24 1478.68 1303.87 1429.71 1353.01C1380.8 1402.07 1328.51 1285.97 1273.93 1279.74C1206.75 1272.07 1132.17 1392.15 1077.7 1312.83C1024.95 1236.01 1037.71 1068.63 1039.14 937.809Z" fill="url(#paint2_linear_1_338)" fill-opacity="0.4"/>
<path fill-rule="evenodd" clip-rule="evenodd" d="M1138.13 919.301C1153.45 815.639 1179.72 720.071 1220.54 649.557C1258.49 584.029 1307.23 555.593 1356.79 541.643C1404.33 528.265 1449.84 548.936 1496.46 571.897C1556.21 601.325 1641.64 580.426 1665.94 693.909C1690.93 810.645 1621.67 922.076 1596.38 1038.56C1579.56 1115.98 1565.8 1190.4 1542.79 1261.11C1514.15 1349.09 1497.57 1479.39 1446.24 1499.92C1394.97 1520.42 1361.32 1386.87 1311.76 1353.5C1250.76 1312.43 1166.9 1385.44 1126.62 1284.71C1087.61 1187.16 1120.39 1039.23 1138.13 919.301Z" fill="url(#paint3_linear_1_338)" fill-opacity="0.6"/>
</g>
<g opacity="0.5">
<path fill-rule="evenodd" clip-rule="evenodd" d="M43 516.042C-13.417 455.046 -91.4972 556.354 -122.5 443.756C-151.311 339.118 -160.612 119.83 -156.682 0.523692C-152.913 -113.909 -129.881 -215.35 -105.252 -318.824C-73.6885 -451.43 -65.0909 -656.313 6.63529 -685.615C80.4193 -715.758 128.261 -526.723 189.698 -439.318C230.539 -381.215 270.367 -330.964 305.807 -259.991C349.903 -171.681 421.468 -101.295 420.927 23.7569C420.385 148.633 334.746 194.955 303.367 302.775C264.745 435.481 286.756 649.336 218.553 719.117C152.499 786.698 108.273 586.614 43 516.042Z" fill="url(#paint4_linear_1_338)" fill-opacity="0.3"/>
<path fill-rule="evenodd" clip-rule="evenodd" d="M130 421.669C77.1864 382.372 13.321 385.604 -20.5 295.168C-51.931 211.125 -50.7568 200.521 -54.5752 95.6999C-58.2382 -4.83867 -44.3437 -98.7814 -29.1825 -194.883C-9.75192 -318.04 -14.6996 -498.502 45.9618 -541.557C108.365 -585.848 161.481 -432.993 220.268 -371.936C259.346 -331.346 297.068 -297.345 332.225 -244.232C375.971 -178.145 442.541 -134.379 449.657 -25.3881C456.763 83.4527 385.023 144.729 364.249 246.267C338.681 371.239 370.818 552.021 315.679 629.453C262.279 704.442 191.104 467.134 130 421.669Z" fill="url(#paint5_linear_1_338)" fill-opacity="0.4"/>
<path fill-rule="evenodd" clip-rule="evenodd" d="M167.5 249.99C123.721 187.016 11.8414 196.909 -8.00002 96.3815C-26.4387 2.96118 85.3641 24.3165 95.0001 -74.2939C104.243 -168.875 80.953 -168.022 107 -248.985C140.382 -352.742 181.646 -239.977 243 -248.985C306.114 -258.253 300.736 -480.809 356.14 -444.452C417.702 -404.052 330.381 -178.223 356.14 -111.441C388.191 -28.3452 531.325 -112.856 524.207 -8.72904C517.098 95.2545 443.239 115.46 411.333 198.597C372.063 300.919 379.01 483.922 318.434 527.433C259.769 569.57 218.149 322.85 167.5 249.99Z" fill="url(#paint6_linear_1_338)" fill-opacity="0.6"/>
</g>
<rect x="482" y="83.5" width="476" height="355" rx="12" fill="white"/>
<rect x="524" y="276.5" width="392" height="48" rx="24" fill="#005AE2"/>
<path d="M682.85 294.7V296.24H680.092V304.5H678.482V296.24H675.71V294.7H682.85ZM684.539 298.676C684.921 297.808 685.64 297.374 686.695 297.374V299.012C686.116 298.975 685.612 299.115 685.183 299.432C684.753 299.74 684.539 300.253 684.539 300.972V304.5H683.027V297.5H684.539V298.676ZM689.24 296.17C689.053 296.357 688.829 296.45 688.568 296.45C688.306 296.45 688.078 296.357 687.882 296.17C687.695 295.974 687.602 295.745 687.602 295.484C687.602 295.223 687.695 294.999 687.882 294.812C688.068 294.616 688.297 294.518 688.568 294.518C688.838 294.518 689.067 294.616 689.254 294.812C689.44 294.999 689.534 295.223 689.534 295.484C689.534 295.745 689.436 295.974 689.24 296.17ZM687.812 304.5V297.5H689.324V304.5H687.812ZM698.723 297.318C699.517 297.318 700.156 297.575 700.641 298.088C701.127 298.601 701.369 299.292 701.369 300.16V304.5H699.857V300.258C699.857 299.773 699.736 299.399 699.493 299.138C699.251 298.867 698.919 298.732 698.499 298.732C698.033 298.732 697.659 298.886 697.379 299.194C697.109 299.502 696.973 299.964 696.973 300.58V304.5H695.461V300.258C695.461 299.773 695.345 299.399 695.111 299.138C694.887 298.867 694.565 298.732 694.145 298.732C693.688 298.732 693.315 298.891 693.025 299.208C692.736 299.516 692.591 299.973 692.591 300.58V304.5H691.079V297.5H692.591V298.34C693.039 297.659 693.707 297.318 694.593 297.318C695.489 297.318 696.152 297.687 696.581 298.424C697.048 297.687 697.762 297.318 698.723 297.318ZM712.871 303.758C712.181 304.374 711.289 304.682 710.197 304.682C709.105 304.682 708.214 304.374 707.523 303.758C706.833 303.133 706.487 302.297 706.487 301.252V294.7H708.097V301.154C708.097 301.751 708.27 302.227 708.615 302.582C708.97 302.937 709.497 303.114 710.197 303.114C710.897 303.114 711.42 302.937 711.765 302.582C712.12 302.227 712.297 301.751 712.297 301.154V294.7H713.907V301.252C713.907 302.297 713.562 303.133 712.871 303.758ZM721.345 304.5L719.273 300.93H717.369V304.5H715.759V294.7H719.679C720.557 294.7 721.299 295.008 721.905 295.624C722.521 296.231 722.829 296.973 722.829 297.85C722.829 298.475 722.647 299.049 722.283 299.572C721.929 300.085 721.462 300.459 720.883 300.692L723.109 304.5H721.345ZM717.369 296.212V299.488H719.679C720.109 299.488 720.473 299.329 720.771 299.012C721.07 298.695 721.219 298.307 721.219 297.85C721.219 297.393 721.07 297.005 720.771 296.688C720.473 296.371 720.109 296.212 719.679 296.212H717.369ZM725.955 302.96H729.945V304.5H724.345V294.7H725.955V302.96Z" fill="white"/>
<path d="M749.459 296.316C749.44 296.541 749.112 296.598 749.006 296.395L748.438 295.298C748.402 295.226 748.327 295.179 748.242 295.173L746.935 295.078C746.692 295.06 746.631 294.756 746.85 294.658L748.032 294.131C748.108 294.096 748.16 294.027 748.166 293.948L748.268 292.735C748.287 292.509 748.615 292.452 748.721 292.656L749.289 293.753C749.326 293.824 749.4 293.872 749.485 293.878L750.792 293.973C751.035 293.991 751.097 294.295 750.877 294.393L749.695 294.92C749.619 294.954 749.568 295.024 749.561 295.102L749.459 296.316Z" fill="white"/>
<path d="M745.706 297.144C745.674 297.253 745.507 297.253 745.476 297.144L745.305 296.556C745.294 296.518 745.262 296.489 745.221 296.478L744.588 296.32C744.471 296.291 744.471 296.136 744.588 296.107L745.221 295.948C745.262 295.938 745.294 295.908 745.305 295.87L745.476 295.282C745.507 295.173 745.674 295.173 745.706 295.282L745.876 295.87C745.887 295.908 745.92 295.938 745.961 295.948L746.594 296.107C746.711 296.136 746.711 296.291 746.594 296.32L745.961 296.478C745.92 296.489 745.887 296.518 745.876 296.556L745.706 297.144Z" fill="white"/>
<path d="M747.888 300.52C747.856 300.629 747.689 300.629 747.658 300.52L747.487 299.932C747.476 299.894 747.444 299.864 747.403 299.854L746.77 299.696C746.652 299.667 746.652 299.512 746.77 299.482L747.403 299.324C747.444 299.314 747.476 299.284 747.487 299.246L747.658 298.658C747.689 298.549 747.856 298.549 747.888 298.658L748.058 299.246C748.069 299.284 748.101 299.314 748.142 299.324L748.775 299.482C748.893 299.512 748.893 299.667 748.775 299.696L748.142 299.854C748.101 299.864 748.069 299.894 748.058 299.932L747.888 300.52Z" fill="white"/>
<path d="M746.031 299.197C746.01 299.27 745.899 299.27 745.878 299.197L745.764 298.805C745.757 298.78 745.735 298.76 745.708 298.753L745.286 298.648C745.208 298.628 745.208 298.525 745.286 298.505L745.708 298.4C745.735 298.393 745.757 298.373 745.764 298.348L745.878 297.956C745.899 297.883 746.01 297.883 746.031 297.956L746.145 298.348C746.152 298.373 746.174 298.393 746.201 298.4L746.623 298.505C746.701 298.525 746.701 298.628 746.623 298.648L746.201 298.753C746.174 298.76 746.152 298.78 746.145 298.805L746.031 299.197Z" fill="white"/>
<path d="M751.122 297.847C751.101 297.919 750.99 297.919 750.969 297.847L750.855 297.455C750.848 297.429 750.826 297.41 750.799 297.403L750.377 297.297C750.299 297.278 750.299 297.174 750.377 297.155L750.799 297.049C750.826 297.043 750.848 297.023 750.855 296.997L750.969 296.606C750.99 296.533 751.101 296.533 751.122 296.606L751.236 296.997C751.243 297.023 751.265 297.043 751.292 297.049L751.714 297.155C751.792 297.174 751.792 297.278 751.714 297.297L751.292 297.403C751.265 297.41 751.243 297.429 751.236 297.455L751.122 297.847Z" fill="white"/>
<path d="M758.318 306.003L757.591 306.678M748.158 297.042L759.962 307.088C760.255 307.337 760.265 307.763 759.984 308.024V308.024C759.704 308.284 759.25 308.278 758.98 308.008C754.905 303.923 747.728 296.707 748.158 297.042Z" stroke="white"/>
<path d="M540.65 355.418C541.098 355.633 541.453 355.941 541.714 356.342C541.985 356.743 542.12 357.205 542.12 357.728C542.12 358.512 541.845 359.17 541.294 359.702C540.743 360.234 540.071 360.5 539.278 360.5H535.05V350.7H538.97C539.735 350.7 540.384 350.957 540.916 351.47C541.448 351.983 541.714 352.618 541.714 353.374C541.714 354.242 541.359 354.923 540.65 355.418ZM538.97 351.918H536.352V354.914H538.97C539.381 354.914 539.726 354.769 540.006 354.48C540.286 354.191 540.426 353.836 540.426 353.416C540.426 353.005 540.281 352.655 539.992 352.366C539.712 352.067 539.371 351.918 538.97 351.918ZM539.278 359.282C539.717 359.282 540.085 359.128 540.384 358.82C540.683 358.512 540.832 358.134 540.832 357.686C540.832 357.247 540.678 356.874 540.37 356.566C540.071 356.258 539.707 356.104 539.278 356.104H536.352V359.282H539.278ZM548.218 353.5H549.52L546.664 360.934C546.366 361.727 545.946 362.329 545.404 362.74C544.872 363.16 544.256 363.347 543.556 363.3V362.166C544.415 362.231 545.045 361.755 545.446 360.738L545.572 360.472L542.52 353.5H543.822L546.202 358.988L548.218 353.5ZM557.327 360.682C556.273 360.682 555.395 360.332 554.695 359.632C553.995 358.923 553.645 358.045 553.645 357C553.645 355.955 553.995 355.082 554.695 354.382C555.395 353.673 556.273 353.318 557.327 353.318C558.018 353.318 558.639 353.486 559.189 353.822C559.74 354.149 560.151 354.592 560.421 355.152L559.399 355.74C559.222 355.367 558.947 355.068 558.573 354.844C558.209 354.62 557.794 354.508 557.327 354.508C556.627 354.508 556.039 354.746 555.563 355.222C555.097 355.698 554.863 356.291 554.863 357C554.863 357.7 555.097 358.288 555.563 358.764C556.039 359.24 556.627 359.478 557.327 359.478C557.794 359.478 558.214 359.371 558.587 359.156C558.961 358.932 559.245 358.633 559.441 358.26L560.477 358.862C560.179 359.413 559.749 359.856 559.189 360.192C558.629 360.519 558.009 360.682 557.327 360.682ZM561.68 360.5V350.28H562.898V360.5H561.68ZM565.372 352.226C565.139 352.226 564.943 352.147 564.784 351.988C564.625 351.829 564.546 351.638 564.546 351.414C564.546 351.19 564.625 350.999 564.784 350.84C564.943 350.672 565.139 350.588 565.372 350.588C565.596 350.588 565.787 350.672 565.946 350.84C566.105 350.999 566.184 351.19 566.184 351.414C566.184 351.638 566.105 351.829 565.946 351.988C565.787 352.147 565.596 352.226 565.372 352.226ZM564.756 360.5V353.5H565.974V360.5H564.756ZM571.122 360.682C570.068 360.682 569.19 360.332 568.49 359.632C567.79 358.923 567.44 358.045 567.44 357C567.44 355.955 567.79 355.082 568.49 354.382C569.19 353.673 570.068 353.318 571.122 353.318C571.813 353.318 572.434 353.486 572.984 353.822C573.535 354.149 573.946 354.592 574.216 355.152L573.194 355.74C573.017 355.367 572.742 355.068 572.368 354.844C572.004 354.62 571.589 354.508 571.122 354.508C570.422 354.508 569.834 354.746 569.358 355.222C568.892 355.698 568.658 356.291 568.658 357C568.658 357.7 568.892 358.288 569.358 358.764C569.834 359.24 570.422 359.478 571.122 359.478C571.589 359.478 572.009 359.371 572.382 359.156C572.756 358.932 573.04 358.633 573.236 358.26L574.272 358.862C573.974 359.413 573.544 359.856 572.984 360.192C572.424 360.519 571.804 360.682 571.122 360.682ZM581.397 360.5H579.885L576.693 357.182V360.5H575.475V350.7H576.693V356.594L579.717 353.5H581.285L577.939 356.888L581.397 360.5ZM583.145 352.226C582.912 352.226 582.716 352.147 582.557 351.988C582.399 351.829 582.319 351.638 582.319 351.414C582.319 351.19 582.399 350.999 582.557 350.84C582.716 350.672 582.912 350.588 583.145 350.588C583.369 350.588 583.561 350.672 583.719 350.84C583.878 350.999 583.957 351.19 583.957 351.414C583.957 351.638 583.878 351.829 583.719 351.988C583.561 352.147 583.369 352.226 583.145 352.226ZM582.529 360.5V353.5H583.747V360.5H582.529ZM589.092 353.318C589.913 353.318 590.571 353.579 591.066 354.102C591.56 354.615 591.808 355.315 591.808 356.202V360.5H590.59V356.272C590.59 355.703 590.436 355.264 590.128 354.956C589.82 354.639 589.395 354.48 588.854 354.48C588.247 354.48 587.757 354.671 587.384 355.054C587.01 355.427 586.824 356.006 586.824 356.79V360.5H585.606V353.5H586.824V354.508C587.318 353.715 588.074 353.318 589.092 353.318ZM599.318 353.5H600.522V360.206C600.522 361.242 600.172 362.045 599.472 362.614C598.772 363.193 597.932 363.482 596.952 363.482C596.168 363.482 595.491 363.333 594.922 363.034C594.353 362.745 593.923 362.325 593.634 361.774L594.698 361.172C595.081 361.956 595.841 362.348 596.98 362.348C597.708 362.348 598.277 362.157 598.688 361.774C599.108 361.391 599.318 360.869 599.318 360.206V359.212C598.702 360.145 597.825 360.612 596.686 360.612C595.687 360.612 594.843 360.257 594.152 359.548C593.461 358.839 593.116 357.975 593.116 356.958C593.116 355.941 593.461 355.082 594.152 354.382C594.843 353.673 595.687 353.318 596.686 353.318C597.834 353.318 598.711 353.78 599.318 354.704V353.5ZM595.048 358.736C595.524 359.212 596.117 359.45 596.826 359.45C597.535 359.45 598.128 359.212 598.604 358.736C599.08 358.26 599.318 357.667 599.318 356.958C599.318 356.258 599.08 355.67 598.604 355.194C598.128 354.718 597.535 354.48 596.826 354.48C596.117 354.48 595.524 354.718 595.048 355.194C594.572 355.67 594.334 356.258 594.334 356.958C594.334 357.667 594.572 358.26 595.048 358.736ZM612.265 350.7V351.932H609.367V360.5H608.079V351.932H605.195V350.7H612.265ZM613.689 354.676C614.09 353.808 614.818 353.374 615.873 353.374V354.648C615.276 354.62 614.762 354.779 614.333 355.124C613.904 355.469 613.689 356.025 613.689 356.79V360.5H612.471V353.5H613.689V354.676ZM617.681 352.226C617.447 352.226 617.251 352.147 617.093 351.988C616.934 351.829 616.855 351.638 616.855 351.414C616.855 351.19 616.934 350.999 617.093 350.84C617.251 350.672 617.447 350.588 617.681 350.588C617.905 350.588 618.096 350.672 618.255 350.84C618.413 350.999 618.493 351.19 618.493 351.414C618.493 351.638 618.413 351.829 618.255 351.988C618.096 352.147 617.905 352.226 617.681 352.226ZM617.065 360.5V353.5H618.283V360.5H617.065ZM627.701 353.318C628.485 353.318 629.119 353.575 629.605 354.088C630.09 354.592 630.333 355.278 630.333 356.146V360.5H629.115V356.188C629.115 355.647 628.975 355.227 628.695 354.928C628.415 354.629 628.041 354.48 627.575 354.48C627.052 354.48 626.632 354.657 626.315 355.012C626.007 355.357 625.853 355.889 625.853 356.608V360.5H624.635V356.188C624.635 355.647 624.499 355.227 624.229 354.928C623.967 354.629 623.608 354.48 623.151 354.48C622.637 354.48 622.208 354.657 621.863 355.012C621.527 355.367 621.359 355.899 621.359 356.608V360.5H620.141V353.5H621.359V354.438C621.835 353.691 622.53 353.318 623.445 353.318C624.387 353.318 625.073 353.715 625.503 354.508C625.988 353.715 626.721 353.318 627.701 353.318ZM638.35 359.744C637.668 360.369 636.786 360.682 635.704 360.682C634.621 360.682 633.734 360.369 633.044 359.744C632.362 359.109 632.022 358.265 632.022 357.21V350.7H633.324V357.154C633.324 357.845 633.529 358.395 633.94 358.806C634.35 359.207 634.938 359.408 635.704 359.408C636.469 359.408 637.057 359.207 637.468 358.806C637.878 358.395 638.084 357.845 638.084 357.154V350.7H639.372V357.21C639.372 358.265 639.031 359.109 638.35 359.744ZM647.173 360.5L644.975 356.748H642.665V360.5H641.363V350.7H645.283C646.123 350.7 646.841 350.999 647.439 351.596C648.036 352.184 648.335 352.898 648.335 353.738C648.335 354.373 648.143 354.951 647.761 355.474C647.387 355.997 646.902 356.365 646.305 356.58L648.615 360.5H647.173ZM642.665 351.918V355.572H645.283C645.768 355.572 646.179 355.395 646.515 355.04C646.86 354.676 647.033 354.242 647.033 353.738C647.033 353.234 646.86 352.805 646.515 352.45C646.179 352.095 645.768 351.918 645.283 351.918H642.665ZM651.223 359.268H655.451V360.5H649.921V350.7H651.223V359.268ZM658.889 359.058L657.979 362.46H656.929L657.489 359.058H658.889ZM664.236 350.7H665.538V360.5H664.236V350.7ZM676.81 353.5H678.028V360.5H676.81V359.296C676.203 360.22 675.321 360.682 674.164 360.682C673.184 360.682 672.349 360.327 671.658 359.618C670.967 358.899 670.622 358.027 670.622 357C670.622 355.973 670.967 355.105 671.658 354.396C672.349 353.677 673.184 353.318 674.164 353.318C675.321 353.318 676.203 353.78 676.81 354.704V353.5ZM674.318 359.506C675.027 359.506 675.62 359.268 676.096 358.792C676.572 358.307 676.81 357.709 676.81 357C676.81 356.291 676.572 355.698 676.096 355.222C675.62 354.737 675.027 354.494 674.318 354.494C673.618 354.494 673.03 354.737 672.554 355.222C672.078 355.698 671.84 356.291 671.84 357C671.84 357.709 672.078 358.307 672.554 358.792C673.03 359.268 673.618 359.506 674.318 359.506ZM685.683 353.5H686.887V360.206C686.887 361.242 686.537 362.045 685.837 362.614C685.137 363.193 684.297 363.482 683.317 363.482C682.533 363.482 681.857 363.333 681.287 363.034C680.718 362.745 680.289 362.325 679.999 361.774L681.063 361.172C681.446 361.956 682.207 362.348 683.345 362.348C684.073 362.348 684.643 362.157 685.053 361.774C685.473 361.391 685.683 360.869 685.683 360.206V359.212C685.067 360.145 684.19 360.612 683.051 360.612C682.053 360.612 681.208 360.257 680.517 359.548C679.827 358.839 679.481 357.975 679.481 356.958C679.481 355.941 679.827 355.082 680.517 354.382C681.208 353.673 682.053 353.318 683.051 353.318C684.199 353.318 685.077 353.78 685.683 354.704V353.5ZM681.413 358.736C681.889 359.212 682.482 359.45 683.191 359.45C683.901 359.45 684.493 359.212 684.969 358.736C685.445 358.26 685.683 357.667 685.683 356.958C685.683 356.258 685.445 355.67 684.969 355.194C684.493 354.718 683.901 354.48 683.191 354.48C682.482 354.48 681.889 354.718 681.413 355.194C680.937 355.67 680.699 356.258 680.699 356.958C680.699 357.667 680.937 358.26 681.413 358.736ZM689.951 354.676C690.352 353.808 691.08 353.374 692.135 353.374V354.648C691.537 354.62 691.024 354.779 690.595 355.124C690.165 355.469 689.951 356.025 689.951 356.79V360.5H688.733V353.5H689.951V354.676ZM693.798 357.56C693.919 358.185 694.204 358.671 694.652 359.016C695.109 359.361 695.669 359.534 696.332 359.534C697.256 359.534 697.928 359.193 698.348 358.512L699.384 359.1C698.702 360.155 697.676 360.682 696.304 360.682C695.193 360.682 694.288 360.337 693.588 359.646C692.897 358.946 692.552 358.064 692.552 357C692.552 355.945 692.892 355.068 693.574 354.368C694.255 353.668 695.137 353.318 696.22 353.318C697.246 353.318 698.082 353.682 698.726 354.41C699.379 355.129 699.706 355.997 699.706 357.014C699.706 357.191 699.692 357.373 699.664 357.56H693.798ZM696.22 354.466C695.566 354.466 695.025 354.653 694.596 355.026C694.166 355.39 693.9 355.88 693.798 356.496H698.474C698.371 355.833 698.11 355.329 697.69 354.984C697.27 354.639 696.78 354.466 696.22 354.466ZM701.946 357.56C702.067 358.185 702.352 358.671 702.8 359.016C703.257 359.361 703.817 359.534 704.48 359.534C705.404 359.534 706.076 359.193 706.496 358.512L707.532 359.1C706.851 360.155 705.824 360.682 704.452 360.682C703.341 360.682 702.436 360.337 701.736 359.646C701.045 358.946 700.7 358.064 700.7 357C700.7 355.945 701.041 355.068 701.722 354.368C702.403 353.668 703.285 353.318 704.368 353.318C705.395 353.318 706.23 353.682 706.874 354.41C707.527 355.129 707.854 355.997 707.854 357.014C707.854 357.191 707.84 357.373 707.812 357.56H701.946ZM704.368 354.466C703.715 354.466 703.173 354.653 702.744 355.026C702.315 355.39 702.049 355.88 701.946 356.496H706.622C706.519 355.833 706.258 355.329 705.838 354.984C705.418 354.639 704.928 354.466 704.368 354.466ZM716.562 354.676H714.7V358.47C714.7 358.815 714.765 359.063 714.896 359.212C715.036 359.352 715.246 359.427 715.526 359.436C715.806 359.436 716.151 359.427 716.562 359.408V360.5C715.498 360.64 714.719 360.556 714.224 360.248C713.729 359.931 713.482 359.338 713.482 358.47V354.676H712.096V353.5H713.482V351.904L714.7 351.54V353.5H716.562V354.676ZM723.557 359.618C722.838 360.327 721.965 360.682 720.939 360.682C719.912 360.682 719.039 360.327 718.321 359.618C717.611 358.909 717.257 358.036 717.257 357C717.257 355.964 717.611 355.091 718.321 354.382C719.039 353.673 719.912 353.318 720.939 353.318C721.965 353.318 722.838 353.673 723.557 354.382C724.275 355.091 724.635 355.964 724.635 357C724.635 358.036 724.275 358.909 723.557 359.618ZM720.939 359.492C721.639 359.492 722.227 359.254 722.703 358.778C723.179 358.302 723.417 357.709 723.417 357C723.417 356.291 723.179 355.698 722.703 355.222C722.227 354.746 721.639 354.508 720.939 354.508C720.248 354.508 719.665 354.746 719.189 355.222C718.713 355.698 718.475 356.291 718.475 357C718.475 357.709 718.713 358.302 719.189 358.778C719.665 359.254 720.248 359.492 720.939 359.492ZM733.378 354.676H731.516V358.47C731.516 358.815 731.582 359.063 731.712 359.212C731.852 359.352 732.062 359.427 732.342 359.436C732.622 359.436 732.968 359.427 733.378 359.408V360.5C732.314 360.64 731.535 360.556 731.04 360.248C730.546 359.931 730.298 359.338 730.298 358.47V354.676H728.912V353.5H730.298V351.904L731.516 351.54V353.5H733.378V354.676ZM738.306 353.318C739.128 353.318 739.786 353.579 740.28 354.102C740.775 354.615 741.022 355.315 741.022 356.202V360.5H739.804V356.272C739.804 355.703 739.65 355.264 739.342 354.956C739.034 354.639 738.61 354.48 738.068 354.48C737.462 354.48 736.972 354.671 736.598 355.054C736.225 355.427 736.038 356.006 736.038 356.79V360.5H734.82V350.7H736.038V354.508C736.533 353.715 737.289 353.318 738.306 353.318ZM743.577 357.56C743.698 358.185 743.983 358.671 744.431 359.016C744.888 359.361 745.448 359.534 746.111 359.534C747.035 359.534 747.707 359.193 748.127 358.512L749.163 359.1C748.481 360.155 747.455 360.682 746.083 360.682C744.972 360.682 744.067 360.337 743.367 359.646C742.676 358.946 742.331 358.064 742.331 357C742.331 355.945 742.671 355.068 743.353 354.368C744.034 353.668 744.916 353.318 745.999 353.318C747.025 353.318 747.861 353.682 748.505 354.41C749.158 355.129 749.485 355.997 749.485 357.014C749.485 357.191 749.471 357.373 749.443 357.56H743.577ZM745.999 354.466C745.345 354.466 744.804 354.653 744.375 355.026C743.945 355.39 743.679 355.88 743.577 356.496H748.253C748.15 355.833 747.889 355.329 747.469 354.984C747.049 354.639 746.559 354.466 745.999 354.466Z" fill="#4991FF"/>
<path d="M760.853 350.7V352.548H758.207V360.5H756.275V352.548H753.643V350.7H760.853ZM762.102 357.742C762.345 358.619 763.003 359.058 764.076 359.058C764.767 359.058 765.289 358.825 765.644 358.358L767.1 359.198C766.409 360.197 765.392 360.696 764.048 360.696C762.891 360.696 761.962 360.346 761.262 359.646C760.562 358.946 760.212 358.064 760.212 357C760.212 355.945 760.557 355.068 761.248 354.368C761.939 353.659 762.825 353.304 763.908 353.304C764.935 353.304 765.779 353.659 766.442 354.368C767.114 355.077 767.45 355.955 767.45 357C767.45 357.233 767.427 357.481 767.38 357.742H762.102ZM762.074 356.342H765.644C765.541 355.866 765.327 355.511 765 355.278C764.683 355.045 764.319 354.928 763.908 354.928C763.423 354.928 763.021 355.054 762.704 355.306C762.387 355.549 762.177 355.894 762.074 356.342ZM770.517 354.704C770.685 354.256 770.96 353.92 771.343 353.696C771.735 353.472 772.169 353.36 772.645 353.36V355.376C772.094 355.311 771.599 355.423 771.161 355.712C770.731 356.001 770.517 356.482 770.517 357.154V360.5H768.711V353.5H770.517V354.704ZM781.443 353.304C782.246 353.304 782.885 353.565 783.361 354.088C783.846 354.611 784.089 355.311 784.089 356.188V360.5H782.283V356.314C782.283 355.894 782.18 355.567 781.975 355.334C781.77 355.101 781.48 354.984 781.107 354.984C780.696 354.984 780.374 355.119 780.141 355.39C779.917 355.661 779.805 356.053 779.805 356.566V360.5H777.999V356.314C777.999 355.894 777.896 355.567 777.691 355.334C777.486 355.101 777.196 354.984 776.823 354.984C776.422 354.984 776.1 355.119 775.857 355.39C775.624 355.661 775.507 356.053 775.507 356.566V360.5H773.701V353.5H775.507V354.242C775.927 353.617 776.576 353.304 777.453 353.304C778.312 353.304 778.946 353.64 779.357 354.312C779.824 353.64 780.519 353.304 781.443 353.304ZM787.289 355.488C787.289 355.675 787.41 355.829 787.653 355.95C787.905 356.062 788.208 356.165 788.563 356.258C788.918 356.342 789.272 356.454 789.627 356.594C789.982 356.725 790.28 356.949 790.523 357.266C790.775 357.583 790.901 357.98 790.901 358.456C790.901 359.175 790.63 359.73 790.089 360.122C789.557 360.505 788.89 360.696 788.087 360.696C786.65 360.696 785.67 360.141 785.147 359.03L786.715 358.148C786.92 358.755 787.378 359.058 788.087 359.058C788.731 359.058 789.053 358.857 789.053 358.456C789.053 358.269 788.927 358.12 788.675 358.008C788.432 357.887 788.134 357.779 787.779 357.686C787.424 357.593 787.07 357.476 786.715 357.336C786.36 357.196 786.057 356.977 785.805 356.678C785.562 356.37 785.441 355.987 785.441 355.53C785.441 354.839 785.693 354.298 786.197 353.906C786.71 353.505 787.345 353.304 788.101 353.304C788.67 353.304 789.188 353.435 789.655 353.696C790.122 353.948 790.49 354.312 790.761 354.788L789.221 355.628C788.997 355.152 788.624 354.914 788.101 354.914C787.868 354.914 787.672 354.965 787.513 355.068C787.364 355.171 787.289 355.311 787.289 355.488ZM801.595 359.632C800.876 360.341 799.999 360.696 798.963 360.696C797.927 360.696 797.049 360.341 796.331 359.632C795.621 358.913 795.267 358.036 795.267 357C795.267 355.964 795.621 355.091 796.331 354.382C797.049 353.663 797.927 353.304 798.963 353.304C799.999 353.304 800.876 353.663 801.595 354.382C802.313 355.091 802.673 355.964 802.673 357C802.673 358.036 802.313 358.913 801.595 359.632ZM797.605 358.386C797.969 358.75 798.421 358.932 798.963 358.932C799.504 358.932 799.957 358.75 800.321 358.386C800.685 358.022 800.867 357.56 800.867 357C800.867 356.44 800.685 355.978 800.321 355.614C799.957 355.25 799.504 355.068 798.963 355.068C798.421 355.068 797.969 355.25 797.605 355.614C797.25 355.978 797.073 356.44 797.073 357C797.073 357.56 797.25 358.022 797.605 358.386ZM807.49 352.24C806.501 352.165 806.006 352.562 806.006 353.43V353.5H807.49V355.236H806.006V360.5H804.2V355.236H803.192V353.5H804.2V353.43C804.2 352.441 804.476 351.689 805.026 351.176C805.577 350.663 806.398 350.439 807.49 350.504V352.24ZM815.248 360.696C814.278 360.696 813.461 360.481 812.798 360.052C812.136 359.613 811.669 359.021 811.398 358.274L813.05 357.308C813.433 358.307 814.184 358.806 815.304 358.806C815.846 358.806 816.242 358.708 816.494 358.512C816.746 358.316 816.872 358.069 816.872 357.77C816.872 357.425 816.718 357.159 816.41 356.972C816.102 356.776 815.552 356.566 814.758 356.342C814.32 356.211 813.946 356.081 813.638 355.95C813.34 355.819 813.036 355.647 812.728 355.432C812.43 355.208 812.201 354.928 812.042 354.592C811.884 354.256 811.804 353.864 811.804 353.416C811.804 352.529 812.117 351.825 812.742 351.302C813.377 350.77 814.138 350.504 815.024 350.504C815.818 350.504 816.513 350.7 817.11 351.092C817.717 351.475 818.188 352.011 818.524 352.702L816.9 353.64C816.508 352.8 815.883 352.38 815.024 352.38C814.623 352.38 814.306 352.473 814.072 352.66C813.848 352.837 813.736 353.071 813.736 353.36C813.736 353.668 813.862 353.92 814.114 354.116C814.376 354.303 814.87 354.508 815.598 354.732C815.897 354.825 816.121 354.9 816.27 354.956C816.429 355.003 816.639 355.082 816.9 355.194C817.171 355.297 817.376 355.395 817.516 355.488C817.666 355.581 817.834 355.707 818.02 355.866C818.207 356.025 818.347 356.188 818.44 356.356C818.543 356.524 818.627 356.729 818.692 356.972C818.767 357.205 818.804 357.462 818.804 357.742C818.804 358.647 818.473 359.366 817.81 359.898C817.157 360.43 816.303 360.696 815.248 360.696ZM821.698 357.742C821.94 358.619 822.598 359.058 823.672 359.058C824.362 359.058 824.885 358.825 825.24 358.358L826.696 359.198C826.005 360.197 824.988 360.696 823.644 360.696C822.486 360.696 821.558 360.346 820.858 359.646C820.158 358.946 819.808 358.064 819.808 357C819.808 355.945 820.153 355.068 820.844 354.368C821.534 353.659 822.421 353.304 823.504 353.304C824.53 353.304 825.375 353.659 826.038 354.368C826.71 355.077 827.046 355.955 827.046 357C827.046 357.233 827.022 357.481 826.976 357.742H821.698ZM821.67 356.342H825.24C825.137 355.866 824.922 355.511 824.596 355.278C824.278 355.045 823.914 354.928 823.504 354.928C823.018 354.928 822.617 355.054 822.3 355.306C821.982 355.549 821.772 355.894 821.67 356.342ZM830.112 354.704C830.28 354.256 830.556 353.92 830.938 353.696C831.33 353.472 831.764 353.36 832.24 353.36V355.376C831.69 355.311 831.195 355.423 830.756 355.712C830.327 356.001 830.112 356.482 830.112 357.154V360.5H828.306V353.5H830.112V354.704ZM837.903 353.5H839.891L837.231 360.5H835.173L832.513 353.5H834.501L836.195 358.4L837.903 353.5ZM841.658 352.66C841.359 352.66 841.098 352.553 840.874 352.338C840.659 352.114 840.552 351.853 840.552 351.554C840.552 351.255 840.659 350.994 840.874 350.77C841.098 350.546 841.359 350.434 841.658 350.434C841.966 350.434 842.227 350.546 842.442 350.77C842.666 350.994 842.778 351.255 842.778 351.554C842.778 351.853 842.666 352.114 842.442 352.338C842.227 352.553 841.966 352.66 841.658 352.66ZM840.762 360.5V353.5H842.568V360.5H840.762ZM847.553 360.696C846.498 360.696 845.616 360.341 844.907 359.632C844.207 358.923 843.857 358.045 843.857 357C843.857 355.955 844.207 355.077 844.907 354.368C845.616 353.659 846.498 353.304 847.553 353.304C848.234 353.304 848.855 353.467 849.415 353.794C849.975 354.121 850.399 354.559 850.689 355.11L849.135 356.02C848.995 355.731 848.78 355.502 848.491 355.334C848.211 355.166 847.893 355.082 847.539 355.082C846.997 355.082 846.549 355.264 846.195 355.628C845.84 355.983 845.663 356.44 845.663 357C845.663 357.551 845.84 358.008 846.195 358.372C846.549 358.727 846.997 358.904 847.539 358.904C847.903 358.904 848.225 358.825 848.505 358.666C848.794 358.498 849.009 358.269 849.149 357.98L850.717 358.876C850.409 359.427 849.975 359.87 849.415 360.206C848.855 360.533 848.234 360.696 847.553 360.696ZM853.088 357.742C853.331 358.619 853.989 359.058 855.062 359.058C855.753 359.058 856.276 358.825 856.63 358.358L858.086 359.198C857.396 360.197 856.378 360.696 855.034 360.696C853.877 360.696 852.948 360.346 852.248 359.646C851.548 358.946 851.198 358.064 851.198 357C851.198 355.945 851.544 355.068 852.234 354.368C852.925 353.659 853.812 353.304 854.894 353.304C855.921 353.304 856.766 353.659 857.428 354.368C858.1 355.077 858.436 355.955 858.436 357C858.436 357.233 858.413 357.481 858.366 357.742H853.088ZM853.06 356.342H856.63C856.528 355.866 856.313 355.511 855.986 355.278C855.669 355.045 855.305 354.928 854.894 354.928C854.409 354.928 854.008 355.054 853.69 355.306C853.373 355.549 853.163 355.894 853.06 356.342ZM861.517 358.568L860.467 362.46H858.997L859.557 358.568H861.517ZM538.564 370.7C539.507 370.7 540.3 371.017 540.944 371.652C541.588 372.287 541.91 373.066 541.91 373.99C541.91 374.914 541.588 375.693 540.944 376.328C540.3 376.963 539.507 377.28 538.564 377.28H536.842V380.5H534.91V370.7H538.564ZM538.564 375.474C538.975 375.474 539.315 375.334 539.586 375.054C539.857 374.765 539.992 374.41 539.992 373.99C539.992 373.561 539.857 373.206 539.586 372.926C539.315 372.646 538.975 372.506 538.564 372.506H536.842V375.474H538.564ZM544.739 374.704C544.907 374.256 545.183 373.92 545.565 373.696C545.957 373.472 546.391 373.36 546.867 373.36V375.376C546.317 375.311 545.822 375.423 545.383 375.712C544.954 376.001 544.739 376.482 544.739 377.154V380.5H542.933V373.5H544.739V374.704ZM548.82 372.66C548.521 372.66 548.26 372.553 548.036 372.338C547.821 372.114 547.714 371.853 547.714 371.554C547.714 371.255 547.821 370.994 548.036 370.77C548.26 370.546 548.521 370.434 548.82 370.434C549.128 370.434 549.389 370.546 549.604 370.77C549.828 370.994 549.94 371.255 549.94 371.554C549.94 371.853 549.828 372.114 549.604 372.338C549.389 372.553 549.128 372.66 548.82 372.66ZM547.924 380.5V373.5H549.73V380.5H547.924ZM555.989 373.5H557.977L555.317 380.5H553.259L550.599 373.5H552.587L554.281 378.4L555.989 373.5ZM563.894 373.5H565.7V380.5H563.894V379.674C563.353 380.355 562.592 380.696 561.612 380.696C560.679 380.696 559.876 380.341 559.204 379.632C558.541 378.913 558.21 378.036 558.21 377C558.21 375.964 558.541 375.091 559.204 374.382C559.876 373.663 560.679 373.304 561.612 373.304C562.592 373.304 563.353 373.645 563.894 374.326V373.5ZM560.562 378.428C560.926 378.792 561.388 378.974 561.948 378.974C562.508 378.974 562.97 378.792 563.334 378.428C563.707 378.055 563.894 377.579 563.894 377C563.894 376.421 563.707 375.95 563.334 375.586C562.97 375.213 562.508 375.026 561.948 375.026C561.388 375.026 560.926 375.213 560.562 375.586C560.198 375.95 560.016 376.421 560.016 377C560.016 377.579 560.198 378.055 560.562 378.428ZM570.67 380.696C569.615 380.696 568.733 380.341 568.024 379.632C567.324 378.923 566.974 378.045 566.974 377C566.974 375.955 567.324 375.077 568.024 374.368C568.733 373.659 569.615 373.304 570.67 373.304C571.351 373.304 571.972 373.467 572.532 373.794C573.092 374.121 573.516 374.559 573.806 375.11L572.252 376.02C572.112 375.731 571.897 375.502 571.608 375.334C571.328 375.166 571.01 375.082 570.656 375.082C570.114 375.082 569.666 375.264 569.312 375.628C568.957 375.983 568.78 376.44 568.78 377C568.78 377.551 568.957 378.008 569.312 378.372C569.666 378.727 570.114 378.904 570.656 378.904C571.02 378.904 571.342 378.825 571.622 378.666C571.911 378.498 572.126 378.269 572.266 377.98L573.834 378.876C573.526 379.427 573.092 379.87 572.532 380.206C571.972 380.533 571.351 380.696 570.67 380.696ZM579.408 373.5H581.34L578.792 380.5C578.428 381.508 577.942 382.236 577.336 382.684C576.738 383.141 575.992 383.347 575.096 383.3V381.62C575.581 381.629 575.964 381.527 576.244 381.312C576.533 381.097 576.762 380.752 576.93 380.276L574.06 373.5H576.034L577.854 378.204L579.408 373.5ZM589.437 370.7C590.38 370.7 591.173 371.017 591.817 371.652C592.461 372.287 592.783 373.066 592.783 373.99C592.783 374.914 592.461 375.693 591.817 376.328C591.173 376.963 590.38 377.28 589.437 377.28H587.715V380.5H585.783V370.7H589.437ZM589.437 375.474C589.848 375.474 590.188 375.334 590.459 375.054C590.73 374.765 590.865 374.41 590.865 373.99C590.865 373.561 590.73 373.206 590.459 372.926C590.188 372.646 589.848 372.506 589.437 372.506H587.715V375.474H589.437ZM599.456 379.632C598.737 380.341 597.86 380.696 596.824 380.696C595.788 380.696 594.911 380.341 594.192 379.632C593.483 378.913 593.128 378.036 593.128 377C593.128 375.964 593.483 375.091 594.192 374.382C594.911 373.663 595.788 373.304 596.824 373.304C597.86 373.304 598.737 373.663 599.456 374.382C600.175 375.091 600.534 375.964 600.534 377C600.534 378.036 600.175 378.913 599.456 379.632ZM595.466 378.386C595.83 378.75 596.283 378.932 596.824 378.932C597.365 378.932 597.818 378.75 598.182 378.386C598.546 378.022 598.728 377.56 598.728 377C598.728 376.44 598.546 375.978 598.182 375.614C597.818 375.25 597.365 375.068 596.824 375.068C596.283 375.068 595.83 375.25 595.466 375.614C595.111 375.978 594.934 376.44 594.934 377C594.934 377.56 595.111 378.022 595.466 378.386ZM601.805 380.5V370.28H603.611V380.5H601.805ZM606.16 372.66C605.861 372.66 605.6 372.553 605.376 372.338C605.161 372.114 605.054 371.853 605.054 371.554C605.054 371.255 605.161 370.994 605.376 370.77C605.6 370.546 605.861 370.434 606.16 370.434C606.468 370.434 606.729 370.546 606.944 370.77C607.168 370.994 607.28 371.255 607.28 371.554C607.28 371.853 607.168 372.114 606.944 372.338C606.729 372.553 606.468 372.66 606.16 372.66ZM605.264 380.5V373.5H607.07V380.5H605.264ZM612.054 380.696C611 380.696 610.118 380.341 609.408 379.632C608.708 378.923 608.358 378.045 608.358 377C608.358 375.955 608.708 375.077 609.408 374.368C610.118 373.659 611 373.304 612.054 373.304C612.736 373.304 613.356 373.467 613.916 373.794C614.476 374.121 614.901 374.559 615.19 375.11L613.636 376.02C613.496 375.731 613.282 375.502 612.992 375.334C612.712 375.166 612.395 375.082 612.04 375.082C611.499 375.082 611.051 375.264 610.696 375.628C610.342 375.983 610.164 376.44 610.164 377C610.164 377.551 610.342 378.008 610.696 378.372C611.051 378.727 611.499 378.904 612.04 378.904C612.404 378.904 612.726 378.825 613.006 378.666C613.296 378.498 613.51 378.269 613.65 377.98L615.218 378.876C614.91 379.427 614.476 379.87 613.916 380.206C613.356 380.533 612.736 380.696 612.054 380.696ZM620.792 373.5H622.724L620.176 380.5C619.812 381.508 619.327 382.236 618.72 382.684C618.123 383.141 617.376 383.347 616.48 383.3V381.62C616.966 381.629 617.348 381.527 617.628 381.312C617.918 381.097 618.146 380.752 618.314 380.276L615.444 373.5H617.418L619.238 378.204L620.792 373.5ZM632.978 373.5H634.196V380.5H632.978V379.296C632.371 380.22 631.489 380.682 630.332 380.682C629.352 380.682 628.516 380.327 627.826 379.618C627.135 378.899 626.79 378.027 626.79 377C626.79 375.973 627.135 375.105 627.826 374.396C628.516 373.677 629.352 373.318 630.332 373.318C631.489 373.318 632.371 373.78 632.978 374.704V373.5ZM630.486 379.506C631.195 379.506 631.788 379.268 632.264 378.792C632.74 378.307 632.978 377.709 632.978 377C632.978 376.291 632.74 375.698 632.264 375.222C631.788 374.737 631.195 374.494 630.486 374.494C629.786 374.494 629.198 374.737 628.722 375.222C628.246 375.698 628.008 376.291 628.008 377C628.008 377.709 628.246 378.307 628.722 378.792C629.198 379.268 629.786 379.506 630.486 379.506ZM639.527 373.318C640.349 373.318 641.007 373.579 641.501 374.102C641.996 374.615 642.243 375.315 642.243 376.202V380.5H641.025V376.272C641.025 375.703 640.871 375.264 640.563 374.956C640.255 374.639 639.831 374.48 639.289 374.48C638.683 374.48 638.193 374.671 637.819 375.054C637.446 375.427 637.259 376.006 637.259 376.79V380.5H636.041V373.5H637.259V374.508C637.754 373.715 638.51 373.318 639.527 373.318ZM649.74 370.7H650.958V380.5H649.74V379.296C649.133 380.22 648.251 380.682 647.094 380.682C646.114 380.682 645.278 380.327 644.588 379.618C643.897 378.899 643.552 378.027 643.552 377C643.552 375.973 643.897 375.105 644.588 374.396C645.278 373.677 646.114 373.318 647.094 373.318C648.251 373.318 649.133 373.78 649.74 374.704V370.7ZM647.248 379.506C647.957 379.506 648.55 379.268 649.026 378.792C649.502 378.307 649.74 377.709 649.74 377C649.74 376.291 649.502 375.698 649.026 375.222C648.55 374.737 647.957 374.494 647.248 374.494C646.548 374.494 645.96 374.737 645.484 375.222C645.008 375.698 644.77 376.291 644.77 377C644.77 377.709 645.008 378.307 645.484 378.792C645.96 379.268 646.548 379.506 647.248 379.506ZM662.631 379.744C661.95 380.369 661.068 380.682 659.985 380.682C658.902 380.682 658.016 380.369 657.325 379.744C656.644 379.109 656.303 378.265 656.303 377.21V370.7H657.605V377.154C657.605 377.845 657.81 378.395 658.221 378.806C658.632 379.207 659.22 379.408 659.985 379.408C660.75 379.408 661.338 379.207 661.749 378.806C662.16 378.395 662.365 377.845 662.365 377.154V370.7H663.653V377.21C663.653 378.265 663.312 379.109 662.631 379.744ZM666.499 375.39C666.499 375.661 666.635 375.88 666.905 376.048C667.176 376.207 667.503 376.337 667.885 376.44C668.268 376.533 668.651 376.645 669.033 376.776C669.416 376.897 669.743 377.112 670.013 377.42C670.284 377.719 670.419 378.106 670.419 378.582C670.419 379.217 670.172 379.725 669.677 380.108C669.192 380.491 668.567 380.682 667.801 380.682C667.12 380.682 666.537 380.533 666.051 380.234C665.566 379.935 665.221 379.539 665.015 379.044L666.065 378.442C666.177 378.778 666.387 379.044 666.695 379.24C667.003 379.436 667.372 379.534 667.801 379.534C668.203 379.534 668.534 379.459 668.795 379.31C669.057 379.151 669.187 378.909 669.187 378.582C669.187 378.311 669.052 378.097 668.781 377.938C668.511 377.77 668.184 377.639 667.801 377.546C667.419 377.443 667.036 377.327 666.653 377.196C666.271 377.065 665.944 376.851 665.673 376.552C665.403 376.253 665.267 375.871 665.267 375.404C665.267 374.797 665.501 374.298 665.967 373.906C666.443 373.514 667.036 373.318 667.745 373.318C668.315 373.318 668.819 373.449 669.257 373.71C669.705 373.962 670.041 374.317 670.265 374.774L669.243 375.348C668.991 374.751 668.492 374.452 667.745 374.452C667.4 374.452 667.106 374.536 666.863 374.704C666.621 374.863 666.499 375.091 666.499 375.39ZM672.524 377.56C672.645 378.185 672.93 378.671 673.378 379.016C673.835 379.361 674.395 379.534 675.058 379.534C675.982 379.534 676.654 379.193 677.074 378.512L678.11 379.1C677.429 380.155 676.402 380.682 675.03 380.682C673.919 380.682 673.014 380.337 672.314 379.646C671.623 378.946 671.278 378.064 671.278 377C671.278 375.945 671.619 375.068 672.3 374.368C672.981 373.668 673.863 373.318 674.946 373.318C675.973 373.318 676.808 373.682 677.452 374.41C678.105 375.129 678.432 375.997 678.432 377.014C678.432 377.191 678.418 377.373 678.39 377.56H672.524ZM674.946 374.466C674.293 374.466 673.751 374.653 673.322 375.026C672.893 375.39 672.627 375.88 672.524 376.496H677.2C677.097 375.833 676.836 375.329 676.416 374.984C675.996 374.639 675.506 374.466 674.946 374.466ZM689.24 379.618C688.522 380.327 687.649 380.682 686.622 380.682C685.596 380.682 684.723 380.327 684.004 379.618C683.295 378.909 682.94 378.036 682.94 377C682.94 375.964 683.295 375.091 684.004 374.382C684.723 373.673 685.596 373.318 686.622 373.318C687.649 373.318 688.522 373.673 689.24 374.382C689.959 375.091 690.318 375.964 690.318 377C690.318 378.036 689.959 378.909 689.24 379.618ZM686.622 379.492C687.322 379.492 687.91 379.254 688.386 378.778C688.862 378.302 689.1 377.709 689.1 377C689.1 376.291 688.862 375.698 688.386 375.222C687.91 374.746 687.322 374.508 686.622 374.508C685.932 374.508 685.348 374.746 684.872 375.222C684.396 375.698 684.158 376.291 684.158 377C684.158 377.709 684.396 378.302 684.872 378.778C685.348 379.254 685.932 379.492 686.622 379.492ZM695.092 371.694C693.86 371.591 693.244 372.123 693.244 373.29V373.5H695.092V374.676H693.244V380.5H692.026V374.676H690.906V373.5H692.026V373.29C692.026 372.347 692.288 371.633 692.81 371.148C693.342 370.663 694.103 370.453 695.092 370.518V371.694ZM704.252 380.682C702.768 380.682 701.54 380.192 700.57 379.212C699.608 378.232 699.128 377.028 699.128 375.6C699.128 374.172 699.608 372.968 700.57 371.988C701.54 371.008 702.768 370.518 704.252 370.518C705.148 370.518 705.969 370.733 706.716 371.162C707.472 371.591 708.06 372.17 708.48 372.898L707.346 373.556C707.066 373.015 706.646 372.585 706.086 372.268C705.535 371.941 704.924 371.778 704.252 371.778C703.122 371.778 702.198 372.142 701.48 372.87C700.77 373.598 700.416 374.508 700.416 375.6C700.416 376.683 700.77 377.588 701.48 378.316C702.198 379.044 703.122 379.408 704.252 379.408C704.924 379.408 705.535 379.249 706.086 378.932C706.646 378.605 707.066 378.176 707.346 377.644L708.48 378.288C708.069 379.016 707.486 379.599 706.73 380.038C705.974 380.467 705.148 380.682 704.252 380.682ZM715.709 379.618C714.99 380.327 714.118 380.682 713.091 380.682C712.064 380.682 711.192 380.327 710.473 379.618C709.764 378.909 709.409 378.036 709.409 377C709.409 375.964 709.764 375.091 710.473 374.382C711.192 373.673 712.064 373.318 713.091 373.318C714.118 373.318 714.99 373.673 715.709 374.382C716.428 375.091 716.787 375.964 716.787 377C716.787 378.036 716.428 378.909 715.709 379.618ZM713.091 379.492C713.791 379.492 714.379 379.254 714.855 378.778C715.331 378.302 715.569 377.709 715.569 377C715.569 376.291 715.331 375.698 714.855 375.222C714.379 374.746 713.791 374.508 713.091 374.508C712.4 374.508 711.817 374.746 711.341 375.222C710.865 375.698 710.627 376.291 710.627 377C710.627 377.709 710.865 378.302 711.341 378.778C711.817 379.254 712.4 379.492 713.091 379.492ZM724.131 379.618C723.412 380.327 722.539 380.682 721.513 380.682C720.486 380.682 719.613 380.327 718.895 379.618C718.185 378.909 717.831 378.036 717.831 377C717.831 375.964 718.185 375.091 718.895 374.382C719.613 373.673 720.486 373.318 721.513 373.318C722.539 373.318 723.412 373.673 724.131 374.382C724.849 375.091 725.209 375.964 725.209 377C725.209 378.036 724.849 378.909 724.131 379.618ZM721.513 379.492C722.213 379.492 722.801 379.254 723.277 378.778C723.753 378.302 723.991 377.709 723.991 377C723.991 376.291 723.753 375.698 723.277 375.222C722.801 374.746 722.213 374.508 721.513 374.508C720.822 374.508 720.239 374.746 719.763 375.222C719.287 375.698 719.049 376.291 719.049 377C719.049 377.709 719.287 378.302 719.763 378.778C720.239 379.254 720.822 379.492 721.513 379.492ZM732.567 380.5H731.055L727.863 377.182V380.5H726.645V370.7H727.863V376.594L730.887 373.5H732.455L729.109 376.888L732.567 380.5ZM734.315 372.226C734.082 372.226 733.886 372.147 733.727 371.988C733.569 371.829 733.489 371.638 733.489 371.414C733.489 371.19 733.569 370.999 733.727 370.84C733.886 370.672 734.082 370.588 734.315 370.588C734.539 370.588 734.731 370.672 734.889 370.84C735.048 370.999 735.127 371.19 735.127 371.414C735.127 371.638 735.048 371.829 734.889 371.988C734.731 372.147 734.539 372.226 734.315 372.226ZM733.699 380.5V373.5H734.917V380.5H733.699ZM737.63 377.56C737.751 378.185 738.036 378.671 738.484 379.016C738.941 379.361 739.501 379.534 740.164 379.534C741.088 379.534 741.76 379.193 742.18 378.512L743.216 379.1C742.534 380.155 741.508 380.682 740.136 380.682C739.025 380.682 738.12 380.337 737.42 379.646C736.729 378.946 736.384 378.064 736.384 377C736.384 375.945 736.724 375.068 737.406 374.368C738.087 373.668 738.969 373.318 740.052 373.318C741.078 373.318 741.914 373.682 742.558 374.41C743.211 375.129 743.538 375.997 743.538 377.014C743.538 377.191 743.524 377.373 743.496 377.56H737.63ZM740.052 374.466C739.398 374.466 738.857 374.653 738.428 375.026C737.998 375.39 737.732 375.88 737.63 376.496H742.306C742.203 375.833 741.942 375.329 741.522 374.984C741.102 374.639 740.612 374.466 740.052 374.466ZM745.714 375.39C745.714 375.661 745.85 375.88 746.12 376.048C746.391 376.207 746.718 376.337 747.1 376.44C747.483 376.533 747.866 376.645 748.248 376.776C748.631 376.897 748.958 377.112 749.228 377.42C749.499 377.719 749.634 378.106 749.634 378.582C749.634 379.217 749.387 379.725 748.892 380.108C748.407 380.491 747.782 380.682 747.016 380.682C746.335 380.682 745.752 380.533 745.266 380.234C744.781 379.935 744.436 379.539 744.23 379.044L745.28 378.442C745.392 378.778 745.602 379.044 745.91 379.24C746.218 379.436 746.587 379.534 747.016 379.534C747.418 379.534 747.749 379.459 748.01 379.31C748.272 379.151 748.402 378.909 748.402 378.582C748.402 378.311 748.267 378.097 747.996 377.938C747.726 377.77 747.399 377.639 747.016 377.546C746.634 377.443 746.251 377.327 745.868 377.196C745.486 377.065 745.159 376.851 744.888 376.552C744.618 376.253 744.482 375.871 744.482 375.404C744.482 374.797 744.716 374.298 745.182 373.906C745.658 373.514 746.251 373.318 746.96 373.318C747.53 373.318 748.034 373.449 748.472 373.71C748.92 373.962 749.256 374.317 749.48 374.774L748.458 375.348C748.206 374.751 747.707 374.452 746.96 374.452C746.615 374.452 746.321 374.536 746.078 374.704C745.836 374.863 745.714 375.091 745.714 375.39ZM751.696 380.654C751.444 380.654 751.229 380.565 751.052 380.388C750.875 380.211 750.786 379.996 750.786 379.744C750.786 379.492 750.875 379.277 751.052 379.1C751.229 378.923 751.444 378.834 751.696 378.834C751.957 378.834 752.172 378.923 752.34 379.1C752.517 379.277 752.606 379.492 752.606 379.744C752.606 379.996 752.517 380.211 752.34 380.388C752.172 380.565 751.957 380.654 751.696 380.654Z" fill="#3284FF"/>
<path d="M551.948 147.6C552.724 147.6 553.368 147.86 553.88 148.38C554.4 148.892 554.66 149.532 554.66 150.3C554.66 151.06 554.4 151.7 553.88 152.22C553.368 152.74 552.724 153 551.948 153H550.016V156H548.9V147.6H551.948ZM551.948 151.956C552.412 151.956 552.796 151.8 553.1 151.488C553.404 151.168 553.556 150.772 553.556 150.3C553.556 149.82 553.404 149.424 553.1 149.112C552.796 148.8 552.412 148.644 551.948 148.644H550.016V151.956H551.948ZM560.381 150H561.425V156H560.381V154.968C559.861 155.76 559.105 156.156 558.113 156.156C557.273 156.156 556.557 155.852 555.965 155.244C555.373 154.628 555.077 153.88 555.077 153C555.077 152.12 555.373 151.376 555.965 150.768C556.557 150.152 557.273 149.844 558.113 149.844C559.105 149.844 559.861 150.24 560.381 151.032V150ZM558.245 155.148C558.853 155.148 559.361 154.944 559.769 154.536C560.177 154.12 560.381 153.608 560.381 153C560.381 152.392 560.177 151.884 559.769 151.476C559.361 151.06 558.853 150.852 558.245 150.852C557.645 150.852 557.141 151.06 556.733 151.476C556.325 151.884 556.121 152.392 556.121 153C556.121 153.608 556.325 154.12 556.733 154.536C557.141 154.944 557.645 155.148 558.245 155.148ZM563.895 151.62C563.895 151.852 564.011 152.04 564.243 152.184C564.475 152.32 564.755 152.432 565.083 152.52C565.411 152.6 565.739 152.696 566.067 152.808C566.395 152.912 566.675 153.096 566.907 153.36C567.139 153.616 567.255 153.948 567.255 154.356C567.255 154.9 567.043 155.336 566.619 155.664C566.203 155.992 565.667 156.156 565.011 156.156C564.427 156.156 563.927 156.028 563.511 155.772C563.095 155.516 562.799 155.176 562.623 154.752L563.523 154.236C563.619 154.524 563.799 154.752 564.063 154.92C564.327 155.088 564.643 155.172 565.011 155.172C565.355 155.172 565.639 155.108 565.863 154.98C566.087 154.844 566.199 154.636 566.199 154.356C566.199 154.124 566.083 153.94 565.851 153.804C565.619 153.66 565.339 153.548 565.011 153.468C564.683 153.38 564.355 153.28 564.027 153.168C563.699 153.056 563.419 152.872 563.187 152.616C562.955 152.36 562.839 152.032 562.839 151.632C562.839 151.112 563.039 150.684 563.439 150.348C563.847 150.012 564.355 149.844 564.963 149.844C565.451 149.844 565.883 149.956 566.259 150.18C566.643 150.396 566.931 150.7 567.123 151.092L566.247 151.584C566.031 151.072 565.603 150.816 564.963 150.816C564.667 150.816 564.415 150.888 564.207 151.032C563.999 151.168 563.895 151.364 563.895 151.62ZM571.521 151.008H569.925V154.26C569.925 154.556 569.981 154.768 570.093 154.896C570.213 155.016 570.393 155.08 570.633 155.088C570.873 155.088 571.169 155.08 571.521 155.064V156C570.609 156.12 569.941 156.048 569.517 155.784C569.093 155.512 568.881 155.004 568.881 154.26V151.008H567.693V150H568.881V148.632L569.925 148.32V150H571.521V151.008ZM573.184 153.48C573.288 154.016 573.532 154.432 573.916 154.728C574.308 155.024 574.788 155.172 575.356 155.172C576.148 155.172 576.724 154.88 577.084 154.296L577.972 154.8C577.388 155.704 576.508 156.156 575.332 156.156C574.38 156.156 573.604 155.86 573.004 155.268C572.412 154.668 572.116 153.912 572.116 153C572.116 152.096 572.408 151.344 572.992 150.744C573.576 150.144 574.332 149.844 575.26 149.844C576.14 149.844 576.856 150.156 577.408 150.78C577.968 151.396 578.248 152.14 578.248 153.012C578.248 153.164 578.236 153.32 578.212 153.48H573.184ZM575.26 150.828C574.7 150.828 574.236 150.988 573.868 151.308C573.5 151.62 573.272 152.04 573.184 152.568H577.192C577.104 152 576.88 151.568 576.52 151.272C576.16 150.976 575.74 150.828 575.26 150.828ZM587.872 155.352C587.288 155.888 586.532 156.156 585.604 156.156C584.676 156.156 583.916 155.888 583.324 155.352C582.74 154.808 582.448 154.084 582.448 153.18V147.6H583.564V153.132C583.564 153.724 583.74 154.196 584.092 154.548C584.444 154.892 584.948 155.064 585.604 155.064C586.26 155.064 586.764 154.892 587.116 154.548C587.468 154.196 587.644 153.724 587.644 153.132V147.6H588.748V153.18C588.748 154.084 588.456 154.808 587.872 155.352ZM595.435 156L593.551 152.784H591.571V156H590.455V147.6H593.815C594.535 147.6 595.151 147.856 595.663 148.368C596.175 148.872 596.431 149.484 596.431 150.204C596.431 150.748 596.267 151.244 595.939 151.692C595.619 152.14 595.203 152.456 594.691 152.64L596.671 156H595.435ZM591.571 148.644V151.776H593.815C594.231 151.776 594.583 151.624 594.871 151.32C595.167 151.008 595.315 150.636 595.315 150.204C595.315 149.772 595.167 149.404 594.871 149.1C594.583 148.796 594.231 148.644 593.815 148.644H591.571ZM598.907 154.944H602.531V156H597.791V147.6H598.907V154.944ZM609.53 149.844C610.234 149.844 610.798 150.068 611.222 150.516C611.646 150.956 611.858 151.556 611.858 152.316V156H610.814V152.376C610.814 151.888 610.682 151.512 610.418 151.248C610.154 150.976 609.79 150.84 609.326 150.84C608.806 150.84 608.386 151.004 608.066 151.332C607.746 151.652 607.586 152.148 607.586 152.82V156H606.542V147.6H607.586V150.864C608.01 150.184 608.658 149.844 609.53 149.844ZM614.047 153.48C614.151 154.016 614.395 154.432 614.779 154.728C615.171 155.024 615.651 155.172 616.219 155.172C617.011 155.172 617.587 154.88 617.947 154.296L618.835 154.8C618.251 155.704 617.371 156.156 616.195 156.156C615.243 156.156 614.467 155.86 613.867 155.268C613.275 154.668 612.979 153.912 612.979 153C612.979 152.096 613.271 151.344 613.855 150.744C614.439 150.144 615.195 149.844 616.123 149.844C617.003 149.844 617.719 150.156 618.271 150.78C618.831 151.396 619.111 152.14 619.111 153.012C619.111 153.164 619.099 153.32 619.075 153.48H614.047ZM616.123 150.828C615.563 150.828 615.099 150.988 614.731 151.308C614.363 151.62 614.135 152.04 614.047 152.568H618.055C617.967 152 617.743 151.568 617.383 151.272C617.023 150.976 616.603 150.828 616.123 150.828ZM621.356 151.008C621.7 150.264 622.324 149.892 623.228 149.892V150.984C622.716 150.96 622.276 151.096 621.908 151.392C621.54 151.688 621.356 152.164 621.356 152.82V156H620.312V150H621.356V151.008ZM624.653 153.48C624.757 154.016 625.001 154.432 625.385 154.728C625.777 155.024 626.257 155.172 626.825 155.172C627.617 155.172 628.193 154.88 628.553 154.296L629.441 154.8C628.857 155.704 627.977 156.156 626.801 156.156C625.849 156.156 625.073 155.86 624.473 155.268C623.881 154.668 623.585 153.912 623.585 153C623.585 152.096 623.877 151.344 624.461 150.744C625.045 150.144 625.801 149.844 626.729 149.844C627.609 149.844 628.325 150.156 628.877 150.78C629.437 151.396 629.717 152.14 629.717 153.012C629.717 153.164 629.705 153.32 629.681 153.48H624.653ZM626.729 150.828C626.169 150.828 625.705 150.988 625.337 151.308C624.969 151.62 624.741 152.04 624.653 152.568H628.661C628.573 152 628.349 151.568 627.989 151.272C627.629 150.976 627.209 150.828 626.729 150.828ZM631.097 156.132C630.881 156.132 630.697 156.056 630.545 155.904C630.393 155.752 630.317 155.568 630.317 155.352C630.317 155.136 630.393 154.952 630.545 154.8C630.697 154.648 630.881 154.572 631.097 154.572C631.321 154.572 631.505 154.648 631.649 154.8C631.801 154.952 631.877 155.136 631.877 155.352C631.877 155.568 631.801 155.752 631.649 155.904C631.505 156.056 631.321 156.132 631.097 156.132ZM634.015 156.132C633.799 156.132 633.615 156.056 633.463 155.904C633.311 155.752 633.235 155.568 633.235 155.352C633.235 155.136 633.311 154.952 633.463 154.8C633.615 154.648 633.799 154.572 634.015 154.572C634.239 154.572 634.423 154.648 634.567 154.8C634.719 154.952 634.795 155.136 634.795 155.352C634.795 155.568 634.719 155.752 634.567 155.904C634.423 156.056 634.239 156.132 634.015 156.132ZM636.932 156.132C636.716 156.132 636.532 156.056 636.38 155.904C636.228 155.752 636.152 155.568 636.152 155.352C636.152 155.136 636.228 154.952 636.38 154.8C636.532 154.648 636.716 154.572 636.932 154.572C637.156 154.572 637.34 154.648 637.484 154.8C637.636 154.952 637.712 155.136 637.712 155.352C637.712 155.568 637.636 155.752 637.484 155.904C637.34 156.056 637.156 156.132 636.932 156.132Z" fill="#3284FF"/>
<rect x="524.5" y="126" width="391" height="54" rx="11.5" stroke="#3284FF"/>
<path d="M549.656 232.682C548.172 232.682 546.945 232.192 545.974 231.212C545.013 230.232 544.532 229.028 544.532 227.6C544.532 226.172 545.013 224.968 545.974 223.988C546.945 223.008 548.172 222.518 549.656 222.518C550.552 222.518 551.373 222.733 552.12 223.162C552.876 223.591 553.464 224.17 553.884 224.898L552.75 225.556C552.47 225.015 552.05 224.585 551.49 224.268C550.939 223.941 550.328 223.778 549.656 223.778C548.527 223.778 547.603 224.142 546.884 224.87C546.175 225.598 545.82 226.508 545.82 227.6C545.82 228.683 546.175 229.588 546.884 230.316C547.603 231.044 548.527 231.408 549.656 231.408C550.328 231.408 550.939 231.249 551.49 230.932C552.05 230.605 552.47 230.176 552.75 229.644L553.884 230.288C553.473 231.016 552.89 231.599 552.134 232.038C551.378 232.467 550.552 232.682 549.656 232.682ZM558.76 225.318C559.581 225.318 560.239 225.579 560.734 226.102C561.228 226.615 561.476 227.315 561.476 228.202V232.5H560.258V228.272C560.258 227.703 560.104 227.264 559.796 226.956C559.488 226.639 559.063 226.48 558.522 226.48C557.915 226.48 557.425 226.671 557.052 227.054C556.678 227.427 556.492 228.006 556.492 228.79V232.5H555.274V222.7H556.492V226.508C556.986 225.715 557.742 225.318 558.76 225.318ZM569.084 231.618C568.365 232.327 567.493 232.682 566.466 232.682C565.439 232.682 564.567 232.327 563.848 231.618C563.139 230.909 562.784 230.036 562.784 229C562.784 227.964 563.139 227.091 563.848 226.382C564.567 225.673 565.439 225.318 566.466 225.318C567.493 225.318 568.365 225.673 569.084 226.382C569.803 227.091 570.162 227.964 570.162 229C570.162 230.036 569.803 230.909 569.084 231.618ZM566.466 231.492C567.166 231.492 567.754 231.254 568.23 230.778C568.706 230.302 568.944 229.709 568.944 229C568.944 228.291 568.706 227.698 568.23 227.222C567.754 226.746 567.166 226.508 566.466 226.508C565.775 226.508 565.192 226.746 564.716 227.222C564.24 227.698 564.002 228.291 564.002 229C564.002 229.709 564.24 230.302 564.716 230.778C565.192 231.254 565.775 231.492 566.466 231.492ZM577.506 231.618C576.787 232.327 575.914 232.682 574.888 232.682C573.861 232.682 572.988 232.327 572.27 231.618C571.56 230.909 571.206 230.036 571.206 229C571.206 227.964 571.56 227.091 572.27 226.382C572.988 225.673 573.861 225.318 574.888 225.318C575.914 225.318 576.787 225.673 577.506 226.382C578.224 227.091 578.584 227.964 578.584 229C578.584 230.036 578.224 230.909 577.506 231.618ZM574.888 231.492C575.588 231.492 576.176 231.254 576.652 230.778C577.128 230.302 577.366 229.709 577.366 229C577.366 228.291 577.128 227.698 576.652 227.222C576.176 226.746 575.588 226.508 574.888 226.508C574.197 226.508 573.614 226.746 573.138 227.222C572.662 227.698 572.424 228.291 572.424 229C572.424 229.709 572.662 230.302 573.138 230.778C573.614 231.254 574.197 231.492 574.888 231.492ZM580.919 227.39C580.919 227.661 581.055 227.88 581.325 228.048C581.596 228.207 581.923 228.337 582.305 228.44C582.688 228.533 583.071 228.645 583.453 228.776C583.836 228.897 584.163 229.112 584.433 229.42C584.704 229.719 584.839 230.106 584.839 230.582C584.839 231.217 584.592 231.725 584.097 232.108C583.612 232.491 582.987 232.682 582.221 232.682C581.54 232.682 580.957 232.533 580.471 232.234C579.986 231.935 579.641 231.539 579.435 231.044L580.485 230.442C580.597 230.778 580.807 231.044 581.115 231.24C581.423 231.436 581.792 231.534 582.221 231.534C582.623 231.534 582.954 231.459 583.215 231.31C583.477 231.151 583.607 230.909 583.607 230.582C583.607 230.311 583.472 230.097 583.201 229.938C582.931 229.77 582.604 229.639 582.221 229.546C581.839 229.443 581.456 229.327 581.073 229.196C580.691 229.065 580.364 228.851 580.093 228.552C579.823 228.253 579.687 227.871 579.687 227.404C579.687 226.797 579.921 226.298 580.387 225.906C580.863 225.514 581.456 225.318 582.165 225.318C582.735 225.318 583.239 225.449 583.677 225.71C584.125 225.962 584.461 226.317 584.685 226.774L583.663 227.348C583.411 226.751 582.912 226.452 582.165 226.452C581.82 226.452 581.526 226.536 581.283 226.704C581.041 226.863 580.919 227.091 580.919 227.39ZM586.944 229.56C587.065 230.185 587.35 230.671 587.798 231.016C588.255 231.361 588.815 231.534 589.478 231.534C590.402 231.534 591.074 231.193 591.494 230.512L592.53 231.1C591.849 232.155 590.822 232.682 589.45 232.682C588.339 232.682 587.434 232.337 586.734 231.646C586.043 230.946 585.698 230.064 585.698 229C585.698 227.945 586.039 227.068 586.72 226.368C587.401 225.668 588.283 225.318 589.366 225.318C590.393 225.318 591.228 225.682 591.872 226.41C592.525 227.129 592.852 227.997 592.852 229.014C592.852 229.191 592.838 229.373 592.81 229.56H586.944ZM589.366 226.466C588.713 226.466 588.171 226.653 587.742 227.026C587.313 227.39 587.047 227.88 586.944 228.496H591.62C591.517 227.833 591.256 227.329 590.836 226.984C590.416 226.639 589.926 226.466 589.366 226.466ZM601.7 222.7C603.035 222.7 604.141 223.176 605.018 224.128C605.905 225.071 606.348 226.228 606.348 227.6C606.348 228.972 605.905 230.134 605.018 231.086C604.141 232.029 603.035 232.5 601.7 232.5H597.878V222.7H601.7ZM601.7 231.268C602.699 231.268 603.515 230.918 604.15 230.218C604.785 229.518 605.102 228.645 605.102 227.6C605.102 226.555 604.785 225.682 604.15 224.982C603.515 224.282 602.699 223.932 601.7 223.932H599.18V231.268H601.7ZM613.709 231.618C612.99 232.327 612.118 232.682 611.091 232.682C610.064 232.682 609.192 232.327 608.473 231.618C607.764 230.909 607.409 230.036 607.409 229C607.409 227.964 607.764 227.091 608.473 226.382C609.192 225.673 610.064 225.318 611.091 225.318C612.118 225.318 612.99 225.673 613.709 226.382C614.428 227.091 614.787 227.964 614.787 229C614.787 230.036 614.428 230.909 613.709 231.618ZM611.091 231.492C611.791 231.492 612.379 231.254 612.855 230.778C613.331 230.302 613.569 229.709 613.569 229C613.569 228.291 613.331 227.698 612.855 227.222C612.379 226.746 611.791 226.508 611.091 226.508C610.4 226.508 609.817 226.746 609.341 227.222C608.865 227.698 608.627 228.291 608.627 229C608.627 229.709 608.865 230.302 609.341 230.778C609.817 231.254 610.4 231.492 611.091 231.492ZM623.783 225.318C624.567 225.318 625.201 225.575 625.687 226.088C626.172 226.592 626.415 227.278 626.415 228.146V232.5H625.197V228.188C625.197 227.647 625.057 227.227 624.777 226.928C624.497 226.629 624.123 226.48 623.657 226.48C623.134 226.48 622.714 226.657 622.397 227.012C622.089 227.357 621.935 227.889 621.935 228.608V232.5H620.717V228.188C620.717 227.647 620.581 227.227 620.311 226.928C620.049 226.629 619.69 226.48 619.233 226.48C618.719 226.48 618.29 226.657 617.945 227.012C617.609 227.367 617.441 227.899 617.441 228.608V232.5H616.223V225.5H617.441V226.438C617.917 225.691 618.612 225.318 619.527 225.318C620.469 225.318 621.155 225.715 621.585 226.508C622.07 225.715 622.803 225.318 623.783 225.318ZM633.9 225.5H635.118V232.5H633.9V231.296C633.293 232.22 632.411 232.682 631.254 232.682C630.274 232.682 629.438 232.327 628.748 231.618C628.057 230.899 627.712 230.027 627.712 229C627.712 227.973 628.057 227.105 628.748 226.396C629.438 225.677 630.274 225.318 631.254 225.318C632.411 225.318 633.293 225.78 633.9 226.704V225.5ZM631.408 231.506C632.117 231.506 632.71 231.268 633.186 230.792C633.662 230.307 633.9 229.709 633.9 229C633.9 228.291 633.662 227.698 633.186 227.222C632.71 226.737 632.117 226.494 631.408 226.494C630.708 226.494 630.12 226.737 629.644 227.222C629.168 227.698 628.93 228.291 628.93 229C628.93 229.709 629.168 230.307 629.644 230.792C630.12 231.268 630.708 231.506 631.408 231.506ZM637.579 224.226C637.346 224.226 637.15 224.147 636.991 223.988C636.832 223.829 636.753 223.638 636.753 223.414C636.753 223.19 636.832 222.999 636.991 222.84C637.15 222.672 637.346 222.588 637.579 222.588C637.803 222.588 637.994 222.672 638.153 222.84C638.312 222.999 638.391 223.19 638.391 223.414C638.391 223.638 638.312 223.829 638.153 223.988C637.994 224.147 637.803 224.226 637.579 224.226ZM636.963 232.5V225.5H638.181V232.5H636.963ZM643.525 225.318C644.347 225.318 645.005 225.579 645.499 226.102C645.994 226.615 646.241 227.315 646.241 228.202V232.5H645.023V228.272C645.023 227.703 644.869 227.264 644.561 226.956C644.253 226.639 643.829 226.48 643.287 226.48C642.681 226.48 642.191 226.671 641.817 227.054C641.444 227.427 641.257 228.006 641.257 228.79V232.5H640.039V225.5H641.257V226.508C641.752 225.715 642.508 225.318 643.525 225.318Z" fill="#3284FF"/>
<path d="M694 225.5L700 231.5L706 225.5" stroke="#3284FF" stroke-width="2" stroke-linecap="round" stroke-linejoin="round"/>
<rect x="524.5" y="205" width="201" height="47" rx="11.5" stroke="#3284FF"/>
<path d="M768.276 223.1V224.156H765.792V231.5H764.688V224.156H762.216V223.1H768.276ZM772.605 225.5H773.721L771.273 231.872C771.017 232.552 770.657 233.068 770.193 233.42C769.737 233.78 769.209 233.94 768.609 233.9V232.928C769.345 232.984 769.885 232.576 770.229 231.704L770.337 231.476L767.721 225.5H768.837L770.877 230.204L772.605 225.5ZM777.905 225.344C778.745 225.344 779.461 225.652 780.053 226.268C780.645 226.876 780.941 227.62 780.941 228.5C780.941 229.38 780.645 230.128 780.053 230.744C779.461 231.352 778.745 231.656 777.905 231.656C776.913 231.656 776.157 231.26 775.637 230.468V233.9H774.593V225.5H775.637V226.532C776.157 225.74 776.913 225.344 777.905 225.344ZM777.773 230.648C778.373 230.648 778.877 230.444 779.285 230.036C779.693 229.62 779.897 229.108 779.897 228.5C779.897 227.892 779.693 227.384 779.285 226.976C778.877 226.56 778.373 226.352 777.773 226.352C777.165 226.352 776.657 226.56 776.249 226.976C775.841 227.384 775.637 227.892 775.637 228.5C775.637 229.108 775.841 229.62 776.249 230.036C776.657 230.444 777.165 230.648 777.773 230.648ZM782.919 228.98C783.023 229.516 783.267 229.932 783.651 230.228C784.043 230.524 784.523 230.672 785.091 230.672C785.883 230.672 786.459 230.38 786.819 229.796L787.707 230.3C787.123 231.204 786.243 231.656 785.067 231.656C784.115 231.656 783.339 231.36 782.739 230.768C782.147 230.168 781.851 229.412 781.851 228.5C781.851 227.596 782.143 226.844 782.727 226.244C783.311 225.644 784.067 225.344 784.995 225.344C785.875 225.344 786.591 225.656 787.143 226.28C787.703 226.896 787.983 227.64 787.983 228.512C787.983 228.664 787.971 228.82 787.947 228.98H782.919ZM784.995 226.328C784.435 226.328 783.971 226.488 783.603 226.808C783.235 227.12 783.007 227.54 782.919 228.068H786.927C786.839 227.5 786.615 227.068 786.255 226.772C785.895 226.476 785.475 226.328 784.995 226.328ZM797.823 231.5L797.139 229.616H793.359L792.675 231.5H791.487L794.619 223.1H795.879L799.011 231.5H797.823ZM793.743 228.572H796.755L795.243 224.432L793.743 228.572ZM799.894 231.5V222.74H800.938V231.5H799.894ZM803.058 224.408C802.858 224.408 802.69 224.34 802.554 224.204C802.418 224.068 802.35 223.904 802.35 223.712C802.35 223.52 802.418 223.356 802.554 223.22C802.69 223.076 802.858 223.004 803.058 223.004C803.25 223.004 803.414 223.076 803.55 223.22C803.686 223.356 803.754 223.52 803.754 223.712C803.754 223.904 803.686 224.068 803.55 224.204C803.414 224.34 803.25 224.408 803.058 224.408ZM802.53 231.5V225.5H803.574V231.5H802.53ZM810.135 225.5H811.179V231.5H810.135V230.468C809.615 231.26 808.859 231.656 807.867 231.656C807.027 231.656 806.311 231.352 805.719 230.744C805.127 230.128 804.831 229.38 804.831 228.5C804.831 227.62 805.127 226.876 805.719 226.268C806.311 225.652 807.027 225.344 807.867 225.344C808.859 225.344 809.615 225.74 810.135 226.532V225.5ZM807.999 230.648C808.607 230.648 809.115 230.444 809.523 230.036C809.931 229.62 810.135 229.108 810.135 228.5C810.135 227.892 809.931 227.384 809.523 226.976C809.115 226.56 808.607 226.352 807.999 226.352C807.399 226.352 806.895 226.56 806.487 226.976C806.079 227.384 805.875 227.892 805.875 228.5C805.875 229.108 806.079 229.62 806.487 230.036C806.895 230.444 807.399 230.648 807.999 230.648ZM813.649 227.12C813.649 227.352 813.765 227.54 813.997 227.684C814.229 227.82 814.509 227.932 814.837 228.02C815.165 228.1 815.493 228.196 815.821 228.308C816.149 228.412 816.429 228.596 816.661 228.86C816.893 229.116 817.009 229.448 817.009 229.856C817.009 230.4 816.797 230.836 816.373 231.164C815.957 231.492 815.421 231.656 814.765 231.656C814.181 231.656 813.681 231.528 813.265 231.272C812.849 231.016 812.553 230.676 812.377 230.252L813.277 229.736C813.373 230.024 813.553 230.252 813.817 230.42C814.081 230.588 814.397 230.672 814.765 230.672C815.109 230.672 815.393 230.608 815.617 230.48C815.841 230.344 815.953 230.136 815.953 229.856C815.953 229.624 815.837 229.44 815.605 229.304C815.373 229.16 815.093 229.048 814.765 228.968C814.437 228.88 814.109 228.78 813.781 228.668C813.453 228.556 813.173 228.372 812.941 228.116C812.709 227.86 812.593 227.532 812.593 227.132C812.593 226.612 812.793 226.184 813.193 225.848C813.601 225.512 814.109 225.344 814.717 225.344C815.205 225.344 815.637 225.456 816.013 225.68C816.397 225.896 816.685 226.2 816.877 226.592L816.001 227.084C815.785 226.572 815.357 226.316 814.717 226.316C814.421 226.316 814.169 226.388 813.961 226.532C813.753 226.668 813.649 226.864 813.649 227.12ZM824.233 225.344C824.937 225.344 825.501 225.568 825.925 226.016C826.349 226.456 826.561 227.056 826.561 227.816V231.5H825.517V227.876C825.517 227.388 825.385 227.012 825.121 226.748C824.857 226.476 824.493 226.34 824.029 226.34C823.509 226.34 823.089 226.504 822.769 226.832C822.449 227.152 822.289 227.648 822.289 228.32V231.5H821.245V223.1H822.289V226.364C822.713 225.684 823.361 225.344 824.233 225.344ZM828.751 228.98C828.855 229.516 829.099 229.932 829.483 230.228C829.875 230.524 830.355 230.672 830.923 230.672C831.715 230.672 832.291 230.38 832.651 229.796L833.539 230.3C832.955 231.204 832.075 231.656 830.899 231.656C829.947 231.656 829.171 231.36 828.571 230.768C827.979 230.168 827.683 229.412 827.683 228.5C827.683 227.596 827.975 226.844 828.559 226.244C829.143 225.644 829.899 225.344 830.827 225.344C831.707 225.344 832.423 225.656 832.975 226.28C833.535 226.896 833.815 227.64 833.815 228.512C833.815 228.664 833.803 228.82 833.779 228.98H828.751ZM830.827 226.328C830.267 226.328 829.803 226.488 829.435 226.808C829.067 227.12 828.839 227.54 828.751 228.068H832.759C832.671 227.5 832.447 227.068 832.087 226.772C831.727 226.476 831.307 226.328 830.827 226.328ZM836.059 226.508C836.403 225.764 837.027 225.392 837.931 225.392V226.484C837.419 226.46 836.979 226.596 836.611 226.892C836.243 227.188 836.059 227.664 836.059 228.32V231.5H835.015V225.5H836.059V226.508ZM839.356 228.98C839.46 229.516 839.704 229.932 840.088 230.228C840.48 230.524 840.96 230.672 841.528 230.672C842.32 230.672 842.896 230.38 843.256 229.796L844.144 230.3C843.56 231.204 842.68 231.656 841.504 231.656C840.552 231.656 839.776 231.36 839.176 230.768C838.584 230.168 838.288 229.412 838.288 228.5C838.288 227.596 838.58 226.844 839.164 226.244C839.748 225.644 840.504 225.344 841.432 225.344C842.312 225.344 843.028 225.656 843.58 226.28C844.14 226.896 844.42 227.64 844.42 228.512C844.42 228.664 844.408 228.82 844.384 228.98H839.356ZM841.432 226.328C840.872 226.328 840.408 226.488 840.04 226.808C839.672 227.12 839.444 227.54 839.356 228.068H843.364C843.276 227.5 843.052 227.068 842.692 226.772C842.332 226.476 841.912 226.328 841.432 226.328Z" fill="#3284FF"/>
<rect x="738.5" y="205" width="177" height="47" rx="11.5" stroke="#3284FF"/>
</g>
<defs>
<linearGradient id="paint0_linear_1_338" x1="720" y1="0" x2="720" y2="523" gradientUnits="userSpaceOnUse">
<stop offset="0.9999" stop-color="#1E3448"/>
<stop offset="1" stop-color="#1E3448" stop-opacity="0"/>
</linearGradient>
<linearGradient id="paint1_linear_1_338" x1="1498.68" y1="1193.08" x2="946.248" y2="1068.96" gradientUnits="userSpaceOnUse">
<stop stop-color="#9EE6F7" stop-opacity="0"/>
<stop offset="1" stop-color="#9EE6F7" stop-opacity="0.46"/>
</linearGradient>
<linearGradient id="paint2_linear_1_338" x1="1510.69" y1="1222.43" x2="1036.28" y2="1153.28" gradientUnits="userSpaceOnUse">
<stop stop-color="#9EE6F7" stop-opacity="0"/>
<stop offset="1" stop-color="#9EE6F7" stop-opacity="0.46"/>
</linearGradient>
<linearGradient id="paint3_linear_1_338" x1="1537.32" y1="1420.47" x2="1060.14" y2="1274.27" gradientUnits="userSpaceOnUse">
<stop stop-color="#005AE2"/>
<stop offset="1" stop-color="#73E6FF" stop-opacity="0.38"/>
</linearGradient>
<linearGradient id="paint4_linear_1_338" x1="396.928" y1="-208.541" x2="-205.863" y2="109.336" gradientUnits="userSpaceOnUse">
<stop stop-color="#9EE6F7" stop-opacity="0"/>
<stop offset="1" stop-color="#9EE6F7" stop-opacity="0.46"/>
</linearGradient>
<linearGradient id="paint5_linear_1_338" x1="414.67" y1="-221.738" x2="-123.642" y2="155.579" gradientUnits="userSpaceOnUse">
<stop stop-color="#9EE6F7" stop-opacity="0"/>
<stop offset="1" stop-color="#9EE6F7" stop-opacity="0.46"/>
</linearGradient>
<linearGradient id="paint6_linear_1_338" x1="516.586" y1="-207.534" x2="23.891" y2="-6.55255" gradientUnits="userSpaceOnUse">
<stop stop-color="#005AE2"/>
<stop offset="1" stop-color="#73E6FF" stop-opacity="0.38"/>
</linearGradient>
<clipPath id="clip0_1_338">
<rect width="1440" height="523" fill="white"/>
</clipPath>
</defs>
</svg>
