<svg width="2" height="12" viewBox="0 0 2 12" fill="none" xmlns="http://www.w3.org/2000/svg">
<rect width="2" height="12" fill="#1E1E1E"/>
<g id="footer" clip-path="url(#clip0_0_1)">
<rect width="1440" height="561" transform="translate(-1134 -506)" fill="white"/>
<g id="Group 2" opacity="0.7">
<path id="Vector" fill-rule="evenodd" clip-rule="evenodd" d="M-162.584 252.549C-177.083 206.393 -154.94 85.1715 -135.341 33.0125C-117.127 -15.4595 -105.742 -36.529 -61.6619 -75.1794C-19.3821 -112.251 62.6701 -141.277 114.352 -165.211C180.586 -195.884 253.166 -278.374 308.847 -255.898C366.125 -232.778 330.554 -147.112 339.029 -89.7396C344.664 -51.6012 352.393 -16.5806 350.117 23.4785C347.285 73.3232 368.112 129.504 324.176 171.632C280.302 213.7 209.87 190.706 152.393 213.064C81.6516 240.582 21.0552 322.989 -46.5031 315.821C-111.932 308.878 -145.809 305.95 -162.584 252.549Z" fill="url(#paint0_linear_0_1)" fill-opacity="0.3"/>
<path id="Vector_2" fill-rule="evenodd" clip-rule="evenodd" d="M-55.9603 214.17C-75.7393 176.995 -84.5823 134.489 -74.4957 88.5667C-65.1224 45.8898 -36.0594 5.46165 -1.94006 -31.7809C30.7852 -67.5022 73.1951 -73.4868 116.306 -99.2003C171.555 -132.153 230.471 -215.106 283.932 -202.289C338.928 -189.105 319.314 -113.315 335.294 -66.0674C345.915 -34.6597 357.974 -6.09688 361.745 27.783C366.437 69.939 393.378 114.844 359.895 154.989C326.458 195.079 259.623 183.432 211.059 208.451C151.287 239.246 108.639 315.021 46.6948 316.348C-13.2952 317.632 -33.0763 257.181 -55.9603 214.17Z" fill="url(#paint1_linear_0_1)" fill-opacity="0.4"/>
<path id="Vector_3" opacity="0.5" fill-rule="evenodd" clip-rule="evenodd" d="M26.6222 159.153C20.8237 118.037 26.0152 74.1232 48.4812 31.0967C69.359 -8.88804 106.461 -42.2279 146.944 -71.2878C185.774 -99.1601 229.124 -115.019 273.858 -130.685C331.187 -150.761 401.548 -199.834 443.579 -175.168C486.817 -149.796 447.193 -79.4517 446.699 -29.2557C446.372 4.11142 448.134 34.9958 441.182 69.2611C432.532 111.897 442.154 162.247 401.344 194.313C360.59 226.335 306.729 199.814 257.522 213.57C196.961 230.499 137.571 295.647 84.0053 283.024C32.1298 270.798 33.3293 206.724 26.6222 159.153Z" fill="url(#paint2_linear_0_1)" fill-opacity="0.6"/>
</g>
<g id="Frame 1000001666">
<path id="Vector 5" d="M1 0V12" stroke="#112232"/>
</g>
</g>
<defs>
<linearGradient id="paint0_linear_0_1" x1="390.318" y1="69.1077" x2="-106.37" y2="56.7827" gradientUnits="userSpaceOnUse">
<stop stop-color="#9EE6F7" stop-opacity="0"/>
<stop offset="1" stop-color="#9EE6F7" stop-opacity="0.46"/>
</linearGradient>
<linearGradient id="paint1_linear_0_1" x1="406.164" y1="72.6517" x2="-40.2344" y2="137.831" gradientUnits="userSpaceOnUse">
<stop stop-color="#9EE6F7" stop-opacity="0"/>
<stop offset="1" stop-color="#9EE6F7" stop-opacity="0.46"/>
</linearGradient>
<linearGradient id="paint2_linear_0_1" x1="465.815" y1="123.507" x2="68.6208" y2="55.1593" gradientUnits="userSpaceOnUse">
<stop stop-color="#005AE2"/>
<stop offset="1" stop-color="#73E6FF" stop-opacity="0.38"/>
</linearGradient>
<clipPath id="clip0_0_1">
<rect width="1440" height="561" fill="white" transform="translate(-1134 -506)"/>
</clipPath>
</defs>
</svg>
